<svg width="19" height="18" viewBox="0 0 19 18" fill="none" xmlns="http://www.w3.org/2000/svg">
<path d="M11.6702 1.33101C11.8071 1.50074 11.8768 1.72982 12.0158 2.18741L15.0611 12.1909C13.9173 11.5972 12.6896 11.1816 11.4203 10.9583L9.43781 4.25812C9.42216 4.20456 9.38955 4.15752 9.34489 4.12408C9.30022 4.09063 9.2459 4.07259 9.1901 4.07265C9.1343 4.07272 9.08003 4.09088 9.03544 4.12443C8.99085 4.15797 8.95834 4.20508 8.94281 4.25868L6.98405 10.955C5.70928 11.1773 4.47609 11.5936 3.32738 12.1894L6.3871 2.1853C6.52716 1.72827 6.59691 1.49962 6.7336 1.32988C6.85442 1.18048 7.01139 1.0644 7.18964 0.992664C7.39116 0.911804 7.63064 0.911804 8.10863 0.911804H10.2944C10.7728 0.911804 11.0123 0.911804 11.2145 0.993226C11.3928 1.06495 11.5497 1.18126 11.6702 1.33101Z" fill="url(#paint0_linear_302_198)"/>
<path d="M12.0345 12.6667C11.5324 13.0963 10.5303 13.3891 9.37622 13.3891C7.96013 13.3891 6.77255 12.9479 6.45769 12.3546C6.34519 12.6946 6.31988 13.0836 6.31988 13.3325C6.31988 13.3325 6.24577 14.5524 7.09444 15.4011C7.09444 15.2964 7.11507 15.1927 7.15516 15.0959C7.19525 14.9991 7.254 14.9112 7.32807 14.8372C7.40214 14.7631 7.49007 14.7044 7.58684 14.6643C7.68361 14.6242 7.78733 14.6036 7.89207 14.6036C8.64722 14.6036 8.6468 15.2622 8.64624 15.7973V15.8445C8.64624 16.6563 9.14222 17.3519 9.8476 17.6452C9.73889 17.4219 9.68252 17.1767 9.68279 16.9283C9.68279 16.1537 10.137 15.8659 10.6655 15.5308C11.0858 15.2644 11.5527 14.9683 11.874 14.3746C12.0474 14.0546 12.1381 13.6964 12.1377 13.3325C12.1379 13.1066 12.1031 12.8819 12.0345 12.6667Z" fill="#FF5D01"/>
<path d="M12.0345 12.6667C11.5324 13.0963 10.5303 13.3891 9.37622 13.3891C7.96013 13.3891 6.77255 12.9479 6.45769 12.3546C6.34519 12.6946 6.31988 13.0836 6.31988 13.3325C6.31988 13.3325 6.24577 14.5524 7.09444 15.4011C7.09444 15.2964 7.11507 15.1927 7.15516 15.0959C7.19525 14.9991 7.254 14.9112 7.32807 14.8372C7.40214 14.7631 7.49007 14.7044 7.58684 14.6643C7.68361 14.6242 7.78733 14.6036 7.89207 14.6036C8.64722 14.6036 8.6468 15.2622 8.64624 15.7973V15.8445C8.64624 16.6563 9.14222 17.3519 9.8476 17.6452C9.73889 17.4219 9.68252 17.1767 9.68279 16.9283C9.68279 16.1537 10.137 15.8659 10.6655 15.5308C11.0858 15.2644 11.5527 14.9683 11.874 14.3746C12.0474 14.0546 12.1381 13.6964 12.1377 13.3325C12.1379 13.1066 12.1031 12.8819 12.0345 12.6667Z" fill="url(#paint1_linear_302_198)"/>
<defs>
<linearGradient id="paint0_linear_302_198" x1="12.6259" y1="0.381268" x2="9.19404" y2="12.1908" gradientUnits="userSpaceOnUse">
<stop stop-color="#000014"/>
<stop offset="1" stop-color="#150426"/>
</linearGradient>
<linearGradient id="paint1_linear_302_198" x1="14.2949" y1="9.17508" x2="11.3227" y2="15.3972" gradientUnits="userSpaceOnUse">
<stop stop-color="#FF1639"/>
<stop offset="1" stop-color="#FF1639" stop-opacity="0"/>
</linearGradient>
</defs>
</svg>
