<svg width="19" height="18" viewBox="0 0 19 18" fill="none" xmlns="http://www.w3.org/2000/svg">
<g clip-path="url(#clip0_302_218)">
<path d="M13.99 0H4.42749C2.09754 0 0.20874 1.8888 0.20874 4.21875V13.7812C0.20874 16.1112 2.09754 18 4.42749 18H13.99C16.3199 18 18.2087 16.1112 18.2087 13.7812V4.21875C18.2087 1.8888 16.3199 0 13.99 0Z" fill="#2396ED"/>
<path d="M10.136 8.58677H11.5926V7.26884H10.136V8.58677ZM8.4019 8.58677H9.8585V7.26884H8.4019V8.58677ZM6.70245 8.58677H8.15912V7.26884H6.70245V8.58677ZM5.003 8.58677H6.42507V7.26884H5.00307L5.003 8.58677ZM3.26895 8.58677H4.72562V7.26884H3.26895V8.58677ZM5.00307 6.99138H6.425V5.67352H5.00307V6.99138ZM6.70252 6.99138H8.15912V5.67352H6.70245L6.70252 6.99138ZM8.4019 6.99138H9.8585V5.67352H8.4019V6.99138ZM8.4019 5.39599H9.8585V4.07812H8.4019V5.39606V5.39599ZM16.24 7.99727C16.24 7.99727 15.6157 7.40763 14.3325 7.61576C14.1938 6.60994 13.1186 6.02037 13.1186 6.02037C13.1186 6.02037 12.1129 7.23424 12.8412 8.58684C12.6331 8.69091 12.2862 8.82963 11.766 8.82963H2.22854C2.05508 9.4886 2.05508 13.8585 6.84118 13.8585C10.2747 13.8585 12.8412 12.2631 14.055 9.34981C15.8585 9.48853 16.24 7.99727 16.24 7.99727Z" fill="white"/>
</g>
<defs>
<clipPath id="clip0_302_218">
<rect width="18" height="18" fill="white" transform="translate(0.20874)"/>
</clipPath>
</defs>
</svg>
