<svg width="19" height="18" viewBox="0 0 19 18" fill="none" xmlns="http://www.w3.org/2000/svg">
<path d="M2.41739 9V0H15.3204V18H2.41739V9ZM12.2949 13.5525C12.3923 13.543 12.4871 13.5158 12.5746 13.4722C12.8986 13.3125 13.0846 12.9683 13.2324 12.2528C13.2894 11.9738 14.1286 7.62675 14.1391 7.5555C14.1586 7.416 14.1331 7.269 14.0761 7.1985C14.0572 7.17897 14.0352 7.16275 14.0109 7.1505L13.9659 7.12725H13.7476C13.5579 7.12725 13.5241 7.12725 13.4866 7.14225C13.4019 7.1715 13.3314 7.25925 13.2954 7.37925C13.2871 7.40775 13.1694 8.04 13.0344 8.784L12.7884 10.1355L12.7539 9.978C12.3339 8.06775 12.1809 7.389 12.1584 7.329C12.1431 7.28314 12.1166 7.24187 12.0811 7.209C12.0024 7.12875 11.9934 7.1265 11.6559 7.1265C11.3476 7.1265 11.3394 7.1265 11.2809 7.182C11.2164 7.24125 11.1894 7.344 11.1976 7.497C11.2021 7.58325 11.2314 7.6995 11.7136 9.585C12.2109 11.5252 12.2769 11.7922 12.3039 11.9677C12.3384 12.1927 12.2664 12.5025 12.1479 12.6375C12.1239 12.6653 12.1201 12.6667 12.0849 12.6615C12.0639 12.6615 11.9949 12.6412 11.9319 12.6232C11.7309 12.5647 11.6604 12.5692 11.5854 12.6442C11.5134 12.7162 11.4826 12.8302 11.4819 13.0267C11.4819 13.2187 11.5029 13.2817 11.6011 13.3815C11.6994 13.4812 11.8441 13.5375 12.0474 13.554C12.1704 13.563 12.2124 13.5622 12.2949 13.5525ZM10.8729 12.2685C10.9018 12.2541 10.9274 12.2339 10.948 12.2091C10.9687 12.1843 10.984 12.1555 10.9929 12.1245C11.0079 12.081 11.0094 12.051 11.0094 11.8575C11.0094 11.6663 11.0071 11.6333 10.9936 11.592C10.9636 11.5013 10.8916 11.445 10.7851 11.4293C10.7544 11.4218 10.6351 11.4218 10.5189 11.4218C10.2451 11.421 10.2354 11.4143 10.1844 11.2838C10.1334 11.1488 10.1124 11.0392 10.0996 10.8322C10.0912 10.3473 10.0882 9.86227 10.0906 9.37725V8.0535H10.3531C10.6936 8.0535 10.7334 8.046 10.8046 7.96875C10.8468 7.91727 10.8733 7.85482 10.8811 7.78875C10.892 7.65547 10.892 7.52153 10.8811 7.38825C10.8616 7.26825 10.8069 7.185 10.7229 7.14675C10.6801 7.128 10.6741 7.12725 10.3854 7.12425H10.0914L10.0891 6.20925C10.0869 5.39175 10.0854 5.289 10.0734 5.25075C10.0633 5.21076 10.0445 5.17347 10.0185 5.14148C9.99244 5.10948 9.95973 5.08355 9.92264 5.0655C9.88364 5.0475 9.86864 5.04675 9.68264 5.04375C9.48014 5.04375 9.41564 5.04375 9.36089 5.07225C9.29564 5.10375 9.24989 5.172 9.22214 5.28075C9.21164 5.32125 9.19814 5.54025 9.16514 6.22725L9.12014 7.12275C9.12014 7.12275 9.06014 7.12275 8.98514 7.13025C8.83064 7.13775 8.78789 7.14675 8.73989 7.19475C8.67089 7.26375 8.64989 7.33725 8.64464 7.536C8.63714 7.7865 8.65964 7.90125 8.73089 7.977C8.78714 8.03775 8.83139 8.052 8.98964 8.0565L9.11939 8.064V9.40275C9.11939 10.6778 9.12389 10.917 9.14489 11.1082C9.17564 11.3857 9.24239 11.64 9.32564 11.8043C9.47114 12.0893 9.73364 12.267 10.0666 12.3053H10.8204L10.8729 12.2753V12.2685ZM5.28764 12.2685C5.36114 12.2287 5.40764 12.153 5.43764 12.0195C5.44964 11.9617 5.45114 11.7188 5.45114 8.631C5.45114 5.493 5.45039 5.301 5.43614 5.2485C5.39864 5.103 5.29364 5.031 5.15264 5.0535C5.12639 5.061 4.89464 5.1165 4.63814 5.18475C4.38089 5.25225 4.12514 5.31975 4.06964 5.33325C3.94214 5.3655 3.90914 5.37975 3.85889 5.42775C3.78014 5.50125 3.76739 5.5665 3.76739 5.88225C3.76739 6.19425 3.77939 6.25725 3.85739 6.33525C3.92789 6.4065 3.99914 6.41025 4.19939 6.35775C4.27664 6.33825 4.34414 6.32175 4.34939 6.32175C4.35689 6.32175 4.35989 6.90975 4.36214 9.144C4.36439 11.721 4.36589 11.9715 4.37789 12.024C4.41389 12.1755 4.46264 12.246 4.55489 12.279C4.58039 12.2887 4.65464 12.291 4.92014 12.2895C5.24639 12.2895 5.25389 12.2887 5.28764 12.2685ZM7.68989 12.2685C7.75889 12.234 7.80389 12.1673 7.83764 12.051L7.85564 11.988L7.85789 8.66175C7.85939 6.26625 7.85789 5.31975 7.85039 5.28C7.82564 5.13 7.74164 5.049 7.60889 5.049C7.55939 5.049 7.46039 5.0715 6.96614 5.202C6.54614 5.31225 6.36689 5.3625 6.32939 5.38125C6.27087 5.40935 6.22528 5.4587 6.20189 5.51925C6.18389 5.56425 6.18389 5.5725 6.18389 5.8785C6.18389 6.18975 6.18389 6.19125 6.20339 6.24075C6.21782 6.27466 6.239 6.30529 6.26564 6.33075C6.34064 6.40575 6.39464 6.4095 6.60764 6.35625C6.65939 6.34273 6.7114 6.33023 6.76364 6.31875C6.76964 6.31875 6.77264 7.22025 6.77414 9.162L6.77639 12.0045L6.79589 12.069C6.81267 12.1349 6.84777 12.1947 6.89714 12.2415C6.95564 12.288 6.96089 12.2887 7.32464 12.2865C7.63514 12.2865 7.65989 12.2865 7.68989 12.2685Z" fill="white"/>
<path d="M5.28764 12.2685C5.36114 12.2287 5.40764 12.153 5.43764 12.0195C5.44964 11.9617 5.45114 11.7188 5.45114 8.631C5.45114 5.493 5.45039 5.301 5.43614 5.2485C5.39864 5.103 5.29364 5.031 5.15264 5.0535C5.12639 5.061 4.89464 5.1165 4.63814 5.18475C4.38089 5.25225 4.12514 5.31975 4.06964 5.33325C3.94214 5.3655 3.90914 5.37975 3.85889 5.42775C3.78014 5.50125 3.76739 5.5665 3.76739 5.88225C3.76739 6.19425 3.77939 6.25725 3.85739 6.33525C3.92789 6.4065 3.99914 6.41025 4.19939 6.35775C4.27664 6.33825 4.34414 6.32175 4.34939 6.32175C4.35689 6.32175 4.35989 6.90975 4.36214 9.144C4.36439 11.721 4.36589 11.9715 4.37789 12.024C4.41389 12.1755 4.46264 12.246 4.55489 12.279C4.58039 12.2887 4.65464 12.291 4.92014 12.2895C5.24639 12.2895 5.25389 12.2887 5.28764 12.2685Z" fill="white"/>
<path d="M7.68989 12.2685C7.75889 12.234 7.80389 12.1673 7.83764 12.051L7.85564 11.988L7.85789 8.66175C7.85939 6.26625 7.85789 5.31975 7.85039 5.28C7.82564 5.13 7.74164 5.049 7.60889 5.049C7.55939 5.049 7.46039 5.0715 6.96614 5.202C6.54614 5.31225 6.36689 5.3625 6.32939 5.38125C6.27087 5.40935 6.22528 5.4587 6.20189 5.51925C6.18389 5.56425 6.18389 5.5725 6.18389 5.8785C6.18389 6.18975 6.18389 6.19125 6.20339 6.24075C6.21782 6.27466 6.239 6.30529 6.26564 6.33075C6.34064 6.40575 6.39464 6.4095 6.60764 6.35625C6.65939 6.34273 6.7114 6.33023 6.76364 6.31875C6.76964 6.31875 6.77264 7.22025 6.77414 9.162L6.77639 12.0045L6.79589 12.069C6.81267 12.1349 6.84777 12.1947 6.89714 12.2415C6.95564 12.288 6.96089 12.2887 7.32464 12.2865C7.63514 12.2865 7.65989 12.2865 7.68989 12.2685Z" fill="white"/>
<path d="M10.8729 12.2685C10.9018 12.2541 10.9274 12.2339 10.948 12.2091C10.9687 12.1843 10.984 12.1555 10.9929 12.1245C11.0079 12.081 11.0094 12.051 11.0094 11.8575C11.0094 11.6663 11.0071 11.6333 10.9936 11.592C10.9636 11.5013 10.8916 11.445 10.7851 11.4293C10.7544 11.4218 10.6351 11.4218 10.5189 11.4218C10.2451 11.421 10.2354 11.4143 10.1844 11.2838C10.1334 11.1488 10.1124 11.0392 10.0996 10.8322C10.0912 10.3473 10.0882 9.86227 10.0906 9.37725V8.0535H10.3531C10.6936 8.0535 10.7334 8.046 10.8046 7.96875C10.8468 7.91727 10.8733 7.85482 10.8811 7.78875C10.892 7.65547 10.892 7.52153 10.8811 7.38825C10.8616 7.26825 10.8069 7.185 10.7229 7.14675C10.6801 7.128 10.6741 7.12725 10.3854 7.12425H10.0914L10.0891 6.20925C10.0869 5.39175 10.0854 5.289 10.0734 5.25075C10.0633 5.21076 10.0445 5.17347 10.0185 5.14148C9.99244 5.10948 9.95973 5.08355 9.92264 5.0655C9.88364 5.0475 9.86864 5.04675 9.68264 5.04375C9.48014 5.04375 9.41564 5.04375 9.36089 5.07225C9.29564 5.10375 9.24989 5.172 9.22214 5.28075C9.21164 5.32125 9.19814 5.54025 9.16514 6.22725L9.12014 7.12275C9.12014 7.12275 9.06014 7.12275 8.98514 7.13025C8.83064 7.13775 8.78789 7.14675 8.73989 7.19475C8.67089 7.26375 8.64989 7.33725 8.64464 7.536C8.63714 7.7865 8.65964 7.90125 8.73089 7.977C8.78714 8.03775 8.83139 8.052 8.98964 8.0565L9.11939 8.064V9.40275C9.11939 10.6778 9.12389 10.917 9.14489 11.1082C9.17564 11.3857 9.24239 11.64 9.32564 11.8043C9.47114 12.0893 9.73364 12.267 10.0666 12.3053H10.8204L10.8729 12.2753V12.2685Z" fill="white"/>
<path d="M12.2949 13.5525C12.3923 13.543 12.4871 13.5158 12.5746 13.4722C12.8986 13.3125 13.0846 12.9683 13.2324 12.2528C13.2894 11.9738 14.1286 7.62675 14.1391 7.5555C14.1586 7.416 14.1331 7.269 14.0761 7.1985C14.0572 7.17897 14.0352 7.16275 14.0109 7.1505L13.9659 7.12725H13.7476C13.5579 7.12725 13.5241 7.12725 13.4866 7.14225C13.4019 7.1715 13.3314 7.25925 13.2954 7.37925C13.2871 7.40775 13.1694 8.04 13.0344 8.784L12.7884 10.1355L12.7539 9.978C12.3339 8.06775 12.1809 7.389 12.1584 7.329C12.1431 7.28314 12.1166 7.24187 12.0811 7.209C12.0024 7.12875 11.9934 7.1265 11.6559 7.1265C11.3476 7.1265 11.3394 7.1265 11.2809 7.182C11.2164 7.24125 11.1894 7.344 11.1976 7.497C11.2021 7.58325 11.2314 7.6995 11.7136 9.585C12.2109 11.5252 12.2769 11.7922 12.3039 11.9677C12.3384 12.1927 12.2664 12.5025 12.1479 12.6375C12.1239 12.6653 12.1201 12.6667 12.0849 12.6615C12.0639 12.6615 11.9949 12.6412 11.9319 12.6232C11.7309 12.5647 11.6604 12.5692 11.5854 12.6442C11.5134 12.7162 11.4826 12.8302 11.4819 13.0267C11.4819 13.2187 11.5029 13.2817 11.6011 13.3815C11.6994 13.4812 11.8441 13.5375 12.0474 13.554C12.1704 13.563 12.2124 13.5622 12.2949 13.5525Z" fill="white"/>
<path d="M2.41739 9V0H15.3204V18H2.41739V9ZM12.2949 13.5525C12.3923 13.543 12.4871 13.5158 12.5746 13.4722C12.8986 13.3125 13.0846 12.9682 13.2324 12.2527C13.2894 11.9737 14.1286 7.62675 14.1391 7.5555C14.1586 7.416 14.1331 7.269 14.0761 7.1985C14.0572 7.17897 14.0352 7.16275 14.0109 7.1505L13.9659 7.12725H13.7476C13.5579 7.12725 13.5241 7.12725 13.4866 7.14225C13.4019 7.1715 13.3314 7.25925 13.2954 7.37925C13.2871 7.40775 13.1694 8.04 13.0344 8.784L12.7884 10.1355L12.7539 9.978C12.3339 8.06775 12.1809 7.389 12.1584 7.329C12.1431 7.28314 12.1166 7.24186 12.0811 7.209C12.0024 7.12875 11.9934 7.1265 11.6559 7.1265C11.3476 7.1265 11.3394 7.1265 11.2809 7.182C11.2164 7.24125 11.1894 7.344 11.1976 7.497C11.2021 7.58325 11.2314 7.6995 11.7136 9.585C12.2109 11.5252 12.2769 11.7922 12.3039 11.9677C12.3384 12.1927 12.2664 12.5025 12.1479 12.6375C12.1239 12.6653 12.1201 12.6667 12.0849 12.6615C12.0639 12.6615 11.9949 12.6412 11.9319 12.6232C11.7309 12.5647 11.6604 12.5692 11.5854 12.6442C11.5134 12.7162 11.4826 12.8302 11.4819 13.0267C11.4819 13.2187 11.5029 13.2817 11.6011 13.3815C11.6994 13.4812 11.8441 13.5375 12.0474 13.554C12.1704 13.563 12.2124 13.5622 12.2949 13.5525ZM10.8729 12.2685C10.9018 12.2541 10.9274 12.2339 10.948 12.2091C10.9687 12.1843 10.984 12.1555 10.9929 12.1245C11.0079 12.081 11.0094 12.051 11.0094 11.8575C11.0094 11.6663 11.0071 11.6333 10.9936 11.592C10.9636 11.5013 10.8916 11.445 10.7851 11.4293C10.7544 11.4218 10.6351 11.4218 10.5189 11.4218C10.2451 11.421 10.2354 11.4143 10.1844 11.2838C10.1334 11.1488 10.1124 11.0392 10.0996 10.8322C10.0912 10.3473 10.0882 9.86227 10.0906 9.37725V8.0535H10.3531C10.6936 8.0535 10.7334 8.046 10.8046 7.96875C10.8468 7.91727 10.8733 7.85482 10.8811 7.78875C10.892 7.65547 10.892 7.52153 10.8811 7.38825C10.8616 7.26825 10.8069 7.185 10.7229 7.14675C10.6801 7.128 10.6741 7.12725 10.3854 7.12425H10.0914L10.0891 6.20925C10.0869 5.39175 10.0854 5.289 10.0734 5.25075C10.0633 5.21076 10.0445 5.17347 10.0185 5.14148C9.99244 5.10948 9.95973 5.08355 9.92264 5.0655C9.88364 5.0475 9.86864 5.04675 9.68264 5.04375C9.48014 5.04375 9.41564 5.04375 9.36089 5.07225C9.29564 5.10375 9.24989 5.172 9.22214 5.28075C9.21164 5.32125 9.19814 5.54025 9.16514 6.22725L9.12014 7.12275C9.12014 7.12275 9.06014 7.12275 8.98514 7.13025C8.83064 7.13775 8.78789 7.14675 8.73989 7.19475C8.67089 7.26375 8.64989 7.33725 8.64464 7.536C8.63714 7.7865 8.65964 7.90125 8.73089 7.977C8.78714 8.03775 8.83139 8.052 8.98964 8.0565L9.11939 8.064V9.40275C9.11939 10.6777 9.12389 10.917 9.14489 11.1082C9.17564 11.3857 9.24239 11.64 9.32564 11.8043C9.47114 12.0893 9.73364 12.267 10.0666 12.3052H10.8204L10.8729 12.2753V12.2685ZM5.28764 12.2685C5.36114 12.2287 5.40764 12.153 5.43764 12.0195C5.44964 11.9617 5.45114 11.7188 5.45114 8.631C5.45114 5.493 5.45039 5.301 5.43614 5.2485C5.39864 5.103 5.29364 5.031 5.15264 5.0535C5.12639 5.061 4.89464 5.1165 4.63814 5.18475C4.38089 5.25225 4.12514 5.31975 4.06964 5.33325C3.94214 5.3655 3.90914 5.37975 3.85889 5.42775C3.78014 5.50125 3.76739 5.5665 3.76739 5.88225C3.76739 6.19425 3.77939 6.25725 3.85739 6.33525C3.92789 6.4065 3.99914 6.41025 4.19939 6.35775C4.27664 6.33825 4.34414 6.32175 4.34939 6.32175C4.35689 6.32175 4.35989 6.90975 4.36214 9.144C4.36439 11.721 4.36589 11.9715 4.37789 12.024C4.41389 12.1755 4.46264 12.246 4.55489 12.279C4.58039 12.2887 4.65464 12.291 4.92014 12.2895C5.24639 12.2895 5.25389 12.2887 5.28764 12.2685ZM7.68989 12.2685C7.75889 12.234 7.80389 12.1673 7.83764 12.051L7.85564 11.988L7.85789 8.66175C7.85939 6.26625 7.85789 5.31975 7.85039 5.28C7.82564 5.13 7.74164 5.049 7.60889 5.049C7.55939 5.049 7.46039 5.0715 6.96614 5.202C6.54614 5.31225 6.36689 5.3625 6.32939 5.38125C6.27087 5.40935 6.22528 5.4587 6.20189 5.51925C6.18389 5.56425 6.18389 5.5725 6.18389 5.8785C6.18389 6.18975 6.18389 6.19125 6.20339 6.24075C6.21782 6.27466 6.239 6.30529 6.26564 6.33075C6.34064 6.40575 6.39464 6.4095 6.60764 6.35625C6.65939 6.34273 6.7114 6.33023 6.76364 6.31875C6.76964 6.31875 6.77264 7.22025 6.77414 9.162L6.77639 12.0045L6.79589 12.069C6.81267 12.1349 6.84777 12.1947 6.89714 12.2415C6.95564 12.288 6.96089 12.2887 7.32464 12.2865C7.63514 12.2865 7.65989 12.2865 7.68989 12.2685Z" fill="black"/>
</svg>
