<svg width="19" height="18" viewBox="0 0 19 18" fill="none" xmlns="http://www.w3.org/2000/svg">
<g clip-path="url(#clip0_302_128)">
<path d="M13.945 0H4.38251C2.05256 0 0.163757 1.8888 0.163757 4.21875V13.7812C0.163757 16.1112 2.05256 18 4.38251 18H13.945C16.275 18 18.1638 16.1112 18.1638 13.7812V4.21875C18.1638 1.8888 16.275 0 13.945 0Z" fill="#242938"/>
<path d="M16.195 12.8628C15.9903 12.9403 15.7643 12.9401 15.5597 12.8623C15.3552 12.7845 15.1862 12.6345 15.0847 12.4405C14.4475 11.4866 13.7438 10.5757 13.0674 9.64526L12.7742 9.25432C11.9688 10.3333 11.1634 11.3693 10.4285 12.4445C10.3327 12.6298 10.1729 12.7741 9.97869 12.8503C9.7845 12.9266 9.56921 12.9296 9.37294 12.8589L12.395 8.80474L9.58402 5.14146C9.78636 5.06839 10.0077 5.06738 10.2107 5.13861C10.4137 5.20983 10.5859 5.34892 10.6983 5.5324C11.3511 6.4864 12.0744 7.3973 12.7937 8.36297C13.517 7.4051 14.2324 6.49026 14.901 5.54414C14.9972 5.36179 15.1572 5.22119 15.3504 5.1491C15.5436 5.07702 15.7565 5.07848 15.9487 5.1532L14.8579 6.59974C14.3693 7.24479 13.8884 7.89377 13.3802 8.52321C13.3392 8.55987 13.3064 8.60475 13.284 8.65495C13.2615 8.70514 13.2499 8.7595 13.2499 8.81448C13.2499 8.86946 13.2615 8.92382 13.284 8.97401C13.3064 9.0242 13.3392 9.06909 13.3802 9.10575C14.3146 10.3451 15.2411 11.5883 16.195 12.8628ZM2.13251 8.7539C2.21463 8.36297 2.2654 7.9368 2.37881 7.53806C3.05515 5.13373 5.81133 4.13283 7.70744 5.6224C8.81775 6.49427 9.09534 7.72966 9.04064 9.12143H2.78543C2.68376 11.6079 4.4782 13.1091 6.77306 12.3429C7.14532 12.2097 7.47856 11.9859 7.74271 11.6917C8.00685 11.3976 8.19358 11.0422 8.28605 10.6578C8.40727 10.2669 8.60273 10.2004 8.97412 10.3138C8.91297 10.7897 8.7447 11.2456 8.48198 11.6472C8.21925 12.0487 7.8689 12.3855 7.45727 12.6321C6.77719 13.0041 5.9969 13.1514 5.22801 13.0531C4.45912 12.9548 3.741 12.6159 3.17637 12.0848C2.61776 11.4567 2.27999 10.6631 2.21463 9.82512C2.21463 9.69223 2.1638 9.55926 2.13644 9.43418C2.13386 9.20743 2.13255 8.98067 2.13251 8.7539ZM2.79323 8.58579H8.4503C8.41507 6.78354 7.27741 5.50512 5.76056 5.49344C4.07166 5.46996 2.86362 6.72096 2.7893 8.57798L2.79323 8.58579Z" fill="white"/>
</g>
<defs>
<clipPath id="clip0_302_128">
<rect width="18" height="18" fill="white" transform="translate(0.163757)"/>
</clipPath>
</defs>
</svg>
