<svg width="19" height="18" viewBox="0 0 19 18" fill="none" xmlns="http://www.w3.org/2000/svg">
<g clip-path="url(#clip0_302_960)">
<path d="M6.82379 18.1406C8.49723 18.1406 9.84723 16.7906 9.84723 15.1172V12.0938H6.82379C5.15035 12.0938 3.80035 13.4438 3.80035 15.1172C3.80035 16.7906 5.15035 18.1406 6.82379 18.1406Z" fill="#0ACF83"/>
<path d="M3.80035 9.07031C3.80035 7.39688 5.15035 6.04688 6.82379 6.04688H9.84723V12.0938H6.82379C5.15035 12.0938 3.80035 10.7437 3.80035 9.07031Z" fill="#A259FF"/>
<path d="M3.80035 3.02344C3.80035 1.35 5.15035 0 6.82379 0H9.84723V6.04688H6.82379C5.15035 6.04688 3.80035 4.69687 3.80035 3.02344Z" fill="#F24E1E"/>
<path d="M9.84723 0H12.8707C14.5441 0 15.8941 1.35 15.8941 3.02344C15.8941 4.69687 14.5441 6.04688 12.8707 6.04688H9.84723V0Z" fill="#FF7262"/>
<path d="M15.8941 9.07031C15.8941 10.7437 14.5441 12.0938 12.8707 12.0938C11.1972 12.0938 9.84723 10.7437 9.84723 9.07031C9.84723 7.39688 11.1972 6.04688 12.8707 6.04688C14.5441 6.04688 15.8941 7.39688 15.8941 9.07031Z" fill="#1ABCFE"/>
</g>
<defs>
<clipPath id="clip0_302_960">
<rect width="18" height="18" fill="white" transform="translate(0.425354)"/>
</clipPath>
</defs>
</svg>
