<svg width="19" height="18" viewBox="0 0 19 18" fill="none" xmlns="http://www.w3.org/2000/svg">
<path d="M3.68785 13.8375L3.78348 13.7042L8.29473 5.14631L8.30429 5.05575L6.31585 1.32075C6.27945 1.25245 6.22249 1.19732 6.15304 1.16317C6.08358 1.12902 6.00515 1.11757 5.92883 1.13045C5.85251 1.14332 5.78218 1.17987 5.72777 1.23491C5.67336 1.28996 5.63764 1.36072 5.62566 1.43718L3.68785 13.8375Z" fill="#FFC24A"/>
<path d="M3.7441 13.7363L3.8161 13.5956L8.28067 5.12664L6.29729 1.37701C6.26458 1.3118 6.21163 1.25895 6.14636 1.22636C6.08108 1.19378 6.00701 1.18322 5.93524 1.19627C5.86346 1.20932 5.79785 1.24528 5.74822 1.29875C5.6986 1.35222 5.66764 1.42034 5.65998 1.49289L3.7441 13.7363Z" fill="#FFA712"/>
<path d="M9.75385 7.88062L11.2344 6.36187L9.75329 3.53756C9.72069 3.47677 9.67222 3.42597 9.61304 3.39055C9.55385 3.35513 9.48617 3.33643 9.4172 3.33643C9.34822 3.33643 9.28054 3.35513 9.22136 3.39055C9.16217 3.42597 9.1137 3.47677 9.0811 3.53756L8.28967 5.04618V5.17499L9.75385 7.88062Z" fill="#F4BD62"/>
<path d="M9.72742 7.81875L11.1669 6.345L9.72742 3.6C9.70386 3.54058 9.66361 3.48925 9.61154 3.45219C9.55946 3.41513 9.49777 3.39392 9.43392 3.39112C9.37006 3.38833 9.30676 3.40407 9.25164 3.43644C9.19653 3.46881 9.15195 3.51643 9.12329 3.57356L8.32792 5.10863L8.30429 5.18681L9.72742 7.81875Z" fill="#FFA50E"/>
<path d="M3.68898 13.8381L3.73229 13.7942L3.88923 13.7306L9.66048 7.98075L9.73361 7.78162L8.29417 5.03775L3.68898 13.8381Z" fill="#F6820C"/>
<path d="M9.93835 16.7377L15.1629 13.8246L13.67 4.63837C13.6593 4.57361 13.6309 4.51305 13.5881 4.46335C13.5452 4.41364 13.4895 4.3767 13.427 4.35659C13.3645 4.33648 13.2977 4.33398 13.2339 4.34935C13.1701 4.36473 13.1118 4.39739 13.0653 4.44374L3.68785 13.8375L8.88141 16.7372C9.04288 16.8273 9.2247 16.8746 9.4096 16.8746C9.5945 16.8746 9.77633 16.8273 9.93779 16.7372" fill="#FDE068"/>
<path d="M15.115 13.8004L13.6345 4.68337C13.6319 4.62143 13.611 4.56166 13.5744 4.51162C13.5378 4.46158 13.4872 4.42353 13.4289 4.40227C13.3707 4.38101 13.3075 4.3775 13.2472 4.3922C13.187 4.40689 13.1325 4.43912 13.0906 4.48481L3.7441 13.8201L8.88029 16.6888C9.04047 16.7782 9.22084 16.8251 9.40426 16.8251C9.58768 16.8251 9.76805 16.7782 9.92823 16.6888L15.115 13.8004Z" fill="#FCCA3F"/>
<path d="M9.93835 16.65C9.77689 16.7401 9.59506 16.7874 9.41016 16.7874C9.22526 16.7874 9.04344 16.7401 8.88198 16.65L3.7306 13.7936L3.68785 13.8375L8.88141 16.7372C9.04288 16.8273 9.2247 16.8746 9.4096 16.8746C9.5945 16.8746 9.77633 16.8273 9.93779 16.7372L15.1629 13.8246L15.1499 13.7458L9.93835 16.65Z" fill="#EEAB37"/>
</svg>
