<svg width="19" height="18" viewBox="0 0 19 18" fill="none" xmlns="http://www.w3.org/2000/svg">
<g clip-path="url(#clip0_302_244)">
<path d="M17.8081 8.2094L10.0574 0.458995C9.61133 0.0126511 8.88739 0.0126511 8.44063 0.458995L6.83131 2.06859L8.87291 4.11018C9.34752 3.95001 9.89145 4.05745 10.2696 4.43559C10.6497 4.81612 10.7563 5.3647 10.5922 5.84085L12.5598 7.80862C13.0358 7.64451 13.5853 7.75054 13.9652 8.13135C14.4968 8.6625 14.4968 9.52354 13.9652 10.055C13.8389 10.1813 13.6889 10.2816 13.5238 10.35C13.3588 10.4184 13.1818 10.4536 13.0031 10.4536C12.8244 10.4536 12.6475 10.4184 12.4824 10.35C12.3174 10.2816 12.1674 10.1813 12.041 10.055C11.8513 9.86506 11.7219 9.62325 11.6692 9.35999C11.6165 9.09672 11.6429 8.82376 11.745 8.57545L9.91016 6.74057L9.90988 11.5698C10.043 11.6353 10.1646 11.7222 10.2697 11.8268C10.801 12.358 10.801 13.2187 10.2697 13.751C9.73831 14.2822 8.87699 14.2822 8.34613 13.751C7.81485 13.2189 7.81485 12.3581 8.34613 11.8268C8.47341 11.6994 8.62481 11.5985 8.79149 11.5301V6.6562C8.62467 6.58802 8.47323 6.48708 8.34613 6.35934C7.94366 5.95715 7.84677 5.36653 8.0532 4.87209L6.04044 2.85932L0.725939 8.17354C0.511531 8.38802 0.391083 8.67887 0.391083 8.98214C0.391083 9.2854 0.511531 9.57625 0.725939 9.79073L8.47677 17.5411C8.92311 17.9875 9.64677 17.9875 10.0938 17.5411L17.8082 9.82673C18.0226 9.61219 18.143 9.32132 18.143 9.01804C18.1429 8.71476 18.0225 8.4239 17.8081 8.2094Z" fill="#F34F29"/>
</g>
<defs>
<clipPath id="clip0_302_244">
<rect width="18" height="18" fill="white" transform="translate(0.266937)"/>
</clipPath>
</defs>
</svg>
