<svg width="17" height="18" viewBox="0 0 17 18" fill="none" xmlns="http://www.w3.org/2000/svg">
<g clip-path="url(#clip0_302_193)">
<path fill-rule="evenodd" clip-rule="evenodd" d="M9.69364 2.06019L13.3903 4.19456C13.497 4.08164 13.6195 3.98472 13.7539 3.90681C14.5205 3.46606 15.4984 3.72775 15.9437 4.49444C16.3845 5.26113 16.1228 6.23894 15.3561 6.68425C15.2226 6.76109 15.0789 6.81834 14.9291 6.85425V11.1246C15.0772 11.1605 15.2194 11.2174 15.3515 11.2934C16.1228 11.7388 16.3845 12.7166 15.9391 13.4833C15.4984 14.2499 14.516 14.5116 13.7493 14.0709C13.6007 13.9857 13.4669 13.8771 13.353 13.7493L9.67889 15.8705C9.7327 16.0334 9.76002 16.2039 9.75983 16.3755C9.75983 17.2569 9.0437 17.9778 8.15764 17.9778C7.27158 17.9778 6.55545 17.2615 6.55545 16.3755C6.55545 16.218 6.57808 16.0659 6.62026 15.9222L2.92464 13.7884C2.81909 13.8991 2.69834 13.9942 2.56601 14.0709C1.79476 14.5116 0.816889 14.2499 0.376139 13.4833C-0.0645481 12.7166 0.197139 11.7388 0.963764 11.2934C1.09583 11.2174 1.23805 11.1605 1.38614 11.1245V6.85425C1.23641 6.81834 1.09263 6.76109 0.959202 6.68425C0.192514 6.24356 -0.0691731 5.26113 0.371577 4.49444C0.812327 3.72775 1.7947 3.46606 2.56139 3.90681C2.69508 3.98431 2.81695 4.0806 2.92326 4.19275L6.62095 2.05781C6.57736 1.90987 6.5553 1.75642 6.55545 1.60219C6.55545 0.71625 7.27158 0 8.15764 0C9.0437 0 9.75983 0.716188 9.75983 1.60219C9.75983 1.76144 9.7367 1.91513 9.69364 2.06019ZM9.30851 2.71781L13.014 4.85719C12.9549 5.06344 12.938 5.27945 12.9642 5.49238C12.9904 5.70531 13.0591 5.91079 13.1663 6.09662C13.3918 6.489 13.7593 6.74913 14.1671 6.8505V11.1261C14.1463 11.1312 14.1256 11.1367 14.105 11.1426L9.26545 2.76062C9.28008 2.74662 9.29445 2.73231 9.30851 2.71781ZM7.05083 2.76156L2.21133 11.1434C2.1904 11.1374 2.16936 11.1318 2.1482 11.1266V6.8505C2.55601 6.74913 2.92345 6.489 3.14901 6.09662C3.25641 5.91044 3.3252 5.70452 3.35126 5.49116C3.37732 5.2778 3.36013 5.06138 3.3007 4.85481L7.00508 2.71606C7.02001 2.7315 7.03526 2.74669 7.05083 2.7615V2.76156ZM8.60533 3.14125L13.4437 11.5212C13.3329 11.627 13.2379 11.7482 13.1616 11.8811C13.0856 12.0131 13.0287 12.1553 12.9928 12.3034H3.32264C3.28662 12.1553 3.22972 12.0131 3.15364 11.8811C3.07714 11.7491 2.98232 11.6287 2.87201 11.5233L7.71133 3.14162C7.85641 3.1834 8.00666 3.20453 8.15764 3.20438C8.31308 3.20438 8.46326 3.18237 8.60533 3.14125ZM9.34251 15.2961L13.0239 13.1706C13.0129 13.1359 13.003 13.1009 12.9943 13.0655H3.32058C3.31545 13.0863 3.3099 13.1069 3.30395 13.1275L7.00333 15.2634C7.15272 15.1081 7.332 14.9846 7.53037 14.9004C7.72875 14.8161 7.94212 14.7729 8.15764 14.7733C8.38069 14.7729 8.60135 14.8192 8.80542 14.9093C9.00949 14.9993 9.19245 15.1311 9.34251 15.2961Z" fill="#E535AB"/>
</g>
<defs>
<clipPath id="clip0_302_193">
<rect width="16" height="18" fill="white" transform="translate(0.157883)"/>
</clipPath>
</defs>
</svg>
