<svg width="45" height="18" viewBox="0 0 45 18" fill="none" xmlns="http://www.w3.org/2000/svg">
<g clip-path="url(#clip0_302_213)">
<path d="M5.33018 15.5655C5.65916 16.0032 6.08668 16.3571 6.57807 16.5986C7.10945 16.8618 7.69581 16.9949 8.28876 16.9869C8.7682 16.9995 9.24546 16.918 9.69362 16.7473C10.0521 16.6064 10.372 16.3827 10.6274 16.0944C10.867 15.8136 11.042 15.4834 11.1399 15.1274C11.2466 14.7427 11.2994 14.345 11.2968 13.9458V12.5574H11.2639C10.9531 13.05 10.5048 13.4407 9.97444 13.6814C9.46877 13.9015 8.92283 14.0141 8.37132 14.012C7.83088 14.016 7.29481 13.915 6.79294 13.7144C6.31773 13.5258 5.88292 13.248 5.51191 12.8962C5.14378 12.5428 4.85136 12.1182 4.65241 11.6482C4.44073 11.1521 4.33384 10.6175 4.33845 10.0781C4.33389 9.54027 4.43501 9.00679 4.63606 8.50794C4.82609 8.03595 5.10364 7.60416 5.4541 7.2353C5.80451 6.86946 6.2265 6.57968 6.69377 6.38402C7.19375 6.17615 7.73079 6.07213 8.27223 6.07828C8.51878 6.07975 8.76472 6.10182 9.00763 6.14431C9.27471 6.19097 9.53543 6.26866 9.78449 6.3758C10.3758 6.63208 10.8869 7.04327 11.2639 7.56596H11.2967V6.27654H12.3878V13.9458C12.3841 14.3964 12.3314 14.8453 12.2308 15.2845C12.1254 15.7594 11.9166 16.2052 11.6192 16.5902C11.2808 17.0149 10.8478 17.3546 10.3548 17.5821C9.81478 17.8464 9.10949 17.9785 8.23909 17.9785C7.53199 17.9906 6.82959 17.8614 6.17307 17.5985C5.54493 17.3294 4.98147 16.9293 4.52035 16.425L5.33009 15.5654L5.33018 15.5655ZM5.52844 10.0452C5.52574 10.4391 5.60165 10.8296 5.75171 11.1937C5.89476 11.5433 6.10215 11.8628 6.3631 12.1358C6.62253 12.4064 6.93104 12.6252 7.27219 12.7805C7.62757 12.9421 8.01401 13.0239 8.40437 13.0202C9.17747 13.023 9.92243 12.7303 10.4869 12.2021C10.7642 11.9405 10.9813 11.6218 11.1233 11.2681C11.2764 10.8792 11.3468 10.4627 11.33 10.0451C11.3328 9.65343 11.2656 9.2644 11.1316 8.89632C11.0043 8.54648 10.8075 8.22603 10.553 7.95426C10.2915 7.67874 9.97661 7.4594 9.62751 7.30964C9.24096 7.14535 8.82434 7.0637 8.40437 7.06993C8.01402 7.06634 7.6276 7.14815 7.27219 7.30964C6.93115 7.46513 6.62267 7.68386 6.3631 7.95426C6.10221 8.22734 5.89478 8.54687 5.75154 8.89632C5.60156 9.26062 5.52572 9.65125 5.52844 10.0452ZM16.8337 14.012H15.6437V2.30971H19.2469C20.4369 2.30971 21.3762 2.56863 22.0649 3.08656C22.7535 3.60458 23.0978 4.38697 23.098 5.43357C23.1189 6.19329 22.8433 6.93131 22.3295 7.49128C21.817 8.0479 21.0759 8.37017 20.1064 8.45818L23.4782 14.012H22.0235L18.8173 8.57405H16.8338L16.8337 14.012ZM16.8337 7.48315H18.9493C19.404 7.49273 19.8576 7.43707 20.2964 7.31786C20.6173 7.23206 20.918 7.08321 21.1807 6.87997C21.3927 6.70937 21.5577 6.48749 21.66 6.23535C21.7605 5.9801 21.811 5.7079 21.8087 5.43357C21.8099 5.16481 21.7594 4.89833 21.6599 4.64867C21.5564 4.39484 21.3918 4.17051 21.1807 3.99565C20.9205 3.78835 20.6189 3.639 20.2963 3.55759C19.8565 3.44438 19.4034 3.3916 18.9493 3.4007H16.8337V7.48315ZM25.5274 2.30971H28.9323C30.1222 2.30971 31.0616 2.56871 31.7503 3.08665C32.4389 3.60467 32.7832 4.38706 32.7834 5.43374C32.7834 6.48069 32.439 7.26576 31.7503 7.78889C31.0616 8.31245 30.1223 8.57414 28.9323 8.57405H26.7176V14.012H25.5274V2.30971ZM26.7177 7.48332H28.635C29.0896 7.49286 29.5432 7.43717 29.982 7.31795C30.3029 7.23211 30.6035 7.08325 30.8663 6.88006C31.0783 6.70943 31.2432 6.48757 31.3455 6.23544C31.4462 5.98023 31.4967 5.70805 31.4944 5.43374C31.4956 5.16495 31.4451 4.89843 31.3455 4.64875C31.242 4.39493 31.0774 4.17061 30.8663 3.99573C30.606 3.78852 30.3046 3.63921 29.982 3.55776C29.5422 3.44454 29.0891 3.39172 28.635 3.40078H26.7176L26.7176 7.48332H26.7177ZM44.733 12.1607C44.5236 12.471 44.2767 12.7541 43.9977 13.0037C43.6958 13.275 43.3595 13.5055 42.9977 13.6895C42.6114 13.8868 42.2038 14.0393 41.783 14.1442C41.3315 14.2563 40.8678 14.3118 40.4027 14.3095C39.5729 14.3172 38.7498 14.1599 37.9814 13.8467C37.2561 13.5536 36.5975 13.117 36.0451 12.5632C35.4927 12.0094 35.0578 11.3496 34.7666 10.6236C34.4517 9.84115 34.2944 9.00417 34.3039 8.16074C34.2944 7.31738 34.4517 6.48046 34.7666 5.69803C35.0578 4.97202 35.4927 4.31232 36.0451 3.75851C36.5976 3.20469 37.2562 2.76818 37.9815 2.47517C38.7499 2.16191 39.5729 2.00459 40.4027 2.01236C41.1505 2.01635 41.8909 2.16212 42.5845 2.44194C43.3242 2.73799 43.9697 3.22932 44.4521 3.8635L43.411 4.64036C43.2711 4.43197 43.1043 4.24298 42.915 4.07829C42.6962 3.88464 42.4549 3.71817 42.1962 3.58251C41.9197 3.43695 41.6289 3.32065 41.3283 3.23549C41.0274 3.14843 40.7159 3.10389 40.4027 3.10318C39.7084 3.0918 39.0201 3.23285 38.3863 3.5164C37.8113 3.77728 37.2964 4.15426 36.8741 4.62366C36.456 5.09441 36.1332 5.64174 35.9234 6.23535C35.4828 7.48118 35.4828 8.84048 35.9234 10.0863C36.1331 10.6799 36.4559 11.2271 36.874 11.6978C37.2962 12.1674 37.8111 12.5444 38.3862 12.8052C39.02 13.0889 39.7083 13.2301 40.4026 13.2186C40.7102 13.2187 41.0172 13.191 41.3199 13.1358C41.6278 13.0792 41.9277 12.9849 42.2125 12.8549C42.5128 12.7172 42.7913 12.5361 43.039 12.3175C43.3173 12.069 43.5593 11.7825 43.7578 11.4666L44.733 12.1607Z" fill="#244B5A"/>
<path d="M3.50733 6.14114L0.425323 3.08197L3.4845 -3.62421e-05L6.5665 3.05914L3.50733 6.14114Z" fill="url(#paint0_linear_302_213)"/>
<path d="M11.8937 4.83536L10.0859 3.041L11.8803 1.23326L13.688 3.02761L11.8937 4.83536Z" fill="url(#paint1_linear_302_213)"/>
<path d="M3.6194 1.21387L1.76687 3.08033L3.63325 4.93286L5.21214 4.92706L3.5564 3.28456L11.7323 3.25427L11.0158 3.97566L11.8052 3.9728L12.7316 3.03957L11.7983 2.11335L11.0088 2.1162L11.7308 2.83248L3.55493 2.86277L5.1983 1.20807L3.6194 1.21387Z" fill="#244B5A"/>
</g>
<defs>
<linearGradient id="paint0_linear_302_213" x1="-304.693" y1="-299.776" x2="309.425" y2="-302.059" gradientUnits="userSpaceOnUse">
<stop stop-color="#72C9C9"/>
<stop offset="1" stop-color="#02B0AD"/>
</linearGradient>
<linearGradient id="paint1_linear_302_213" x1="-168.881" y1="-174.6" x2="191.329" y2="-175.939" gradientUnits="userSpaceOnUse">
<stop stop-color="#03B6B4"/>
<stop offset="1" stop-color="#74CBCA"/>
</linearGradient>
<clipPath id="clip0_302_213">
<rect width="44.3077" height="18" fill="white" transform="translate(0.425354)"/>
</clipPath>
</defs>
</svg>
