<svg width="19" height="18" viewBox="0 0 19 18" fill="none" xmlns="http://www.w3.org/2000/svg">
<g clip-path="url(#clip0_302_15)">
<path d="M0.413406 0H18.4134V18H0.413406V0Z" fill="#F7DF1E"/>
<path d="M5.14628 15.0421L6.5237 14.2085C6.78948 14.6796 7.03122 15.0783 7.61108 15.0783C8.16691 15.0783 8.51741 14.8609 8.51741 14.0152V8.26374H10.2089V14.0391C10.2089 15.791 9.18194 16.5885 7.68358 16.5885C6.33041 16.5885 5.54495 15.8877 5.14621 15.0419M11.1277 14.8608L12.505 14.0634C12.8676 14.6555 13.3388 15.0905 14.1724 15.0905C14.8734 15.0905 15.3203 14.74 15.3203 14.2567C15.3203 13.6767 14.8611 13.4713 14.0879 13.1331L13.6651 12.9517C12.4446 12.4323 11.6351 11.7798 11.6351 10.4024C11.6351 9.13365 12.6017 8.16699 14.1121 8.16699C15.1875 8.16699 15.9608 8.54162 16.5165 9.5203L15.1994 10.3662C14.9094 9.84662 14.5954 9.64123 14.112 9.64123C13.6166 9.64123 13.3025 9.95539 13.3025 10.3662C13.3025 10.8736 13.6166 11.0791 14.3415 11.3933L14.7644 11.5745C16.2023 12.1908 17.0118 12.819 17.0118 14.2326C17.0118 15.7551 15.8156 16.5887 14.2086 16.5887C12.6379 16.5887 11.623 15.8396 11.1276 14.8609" fill="black"/>
</g>
<defs>
<clipPath id="clip0_302_15">
<rect width="18" height="18" fill="white" transform="translate(0.413406)"/>
</clipPath>
</defs>
</svg>
