<svg width="19" height="18" viewBox="0 0 19 18" fill="none" xmlns="http://www.w3.org/2000/svg">
<path d="M4.69476 2.87169C3.66089 4.35739 3.78956 6.29056 4.57945 7.8695L4.63725 7.98172L4.67423 8.05288L4.69729 8.0938L4.7385 8.16749C4.76297 8.21066 4.78814 8.25355 4.81387 8.29672L4.8569 8.36759C4.88545 8.41344 4.91456 8.459 4.94437 8.50442L4.98164 8.56194C5.02284 8.62339 5.06489 8.68456 5.10834 8.74489L5.112 8.74953L5.13337 8.77836C5.17092 8.83011 5.20959 8.8813 5.24883 8.93206L5.29228 8.98733C5.32729 9.03135 5.36287 9.07494 5.39901 9.11867L5.43979 9.16733C5.48831 9.22442 5.53795 9.28152 5.58844 9.3372L5.59139 9.3403L5.59715 9.34663C5.64651 9.40048 5.697 9.45322 5.74833 9.50595L5.7967 9.55475C5.83636 9.59469 5.87672 9.63392 5.91736 9.67302L5.96672 9.71999C6.02114 9.77117 6.07598 9.82152 6.13209 9.87045L6.13462 9.8727L6.16345 9.89717C6.21281 9.94006 6.26301 9.98225 6.31364 10.024L6.3758 10.0737C6.41714 10.1067 6.4589 10.1395 6.50095 10.1715L6.56803 10.2223C6.61444 10.2565 6.66126 10.2901 6.70851 10.3231L6.75956 10.3594L6.77376 10.3695C6.81848 10.4005 6.86447 10.4301 6.91017 10.4598L6.96923 10.4992C7.03954 10.5435 7.11084 10.5875 7.18284 10.63L7.2419 10.6633C7.29492 10.6938 7.34822 10.7239 7.40222 10.7532L7.49095 10.799L7.6057 10.8586L7.63214 10.8714L7.67911 10.8941C7.73915 10.9228 7.79976 10.951 7.86094 10.9783L7.89933 10.9955C7.96936 11.0261 8.04009 11.0555 8.11139 11.0838L8.16314 11.104C8.22909 11.1296 8.29603 11.1545 8.36325 11.1781L8.38842 11.1868C8.46211 11.2127 8.53664 11.2365 8.61159 11.26L8.66545 11.276C8.74167 11.2991 8.81719 11.3263 8.8958 11.341C13.8954 12.2526 15.3477 8.33666 15.3477 8.33666C14.1279 9.92572 11.963 10.3448 9.91167 9.87819C9.8339 9.86061 9.75853 9.83628 9.68273 9.81406L9.62564 9.79663C9.5517 9.77407 9.47819 9.75016 9.40514 9.72491L9.3749 9.71408C9.30977 9.691 9.24498 9.66695 9.18056 9.64194L9.126 9.62056C9.05555 9.59272 8.98537 9.56361 8.91619 9.53338L8.87428 9.51467C8.81492 9.48799 8.7559 9.46057 8.69723 9.43241L8.64604 9.4078C8.60006 9.38544 8.55464 9.36167 8.50908 9.33819L8.41781 9.29024C8.36226 9.2607 8.30784 9.22977 8.2537 9.19827L8.19829 9.16747C8.12638 9.12488 8.05512 9.08118 7.98454 9.03641L7.92689 8.99802C7.87568 8.96513 7.825 8.93142 7.77487 8.89691L7.72579 8.86245C7.67749 8.82842 7.62958 8.79382 7.58208 8.75867L7.51837 8.71044C7.47478 8.67711 7.43147 8.6435 7.38872 8.60905L7.33092 8.56264C7.27636 8.51792 7.2225 8.47264 7.16934 8.42638L7.15162 8.41161C7.09423 8.36099 7.0376 8.30951 6.98175 8.2572L6.93394 8.21108C6.89252 8.17194 6.85183 8.13204 6.81187 8.09141L6.76406 8.0436C6.71315 7.99156 6.66323 7.93883 6.61429 7.88525L6.60684 7.87724C6.5551 7.82062 6.50446 7.763 6.45497 7.70441L6.41517 7.65716C6.37813 7.61262 6.3417 7.56757 6.3059 7.52202L6.26583 7.47209C6.22294 7.41668 6.18084 7.36066 6.13955 7.30405C5.00076 5.75056 4.59155 3.608 5.50181 1.8485M7.90383 1.61985C7.15626 2.69563 7.19676 4.13605 7.78008 5.2737C7.87767 5.46496 7.98812 5.64936 8.11069 5.82566C8.22262 5.98639 8.34694 6.17736 8.49558 6.30631C8.54944 6.36566 8.60583 6.4236 8.66334 6.48041L8.7075 6.52414C8.76333 6.57828 8.82014 6.63158 8.87878 6.68333L8.88581 6.68938L8.8875 6.69106C8.95247 6.74802 9.01954 6.80272 9.08761 6.85672L9.13303 6.89216C9.20137 6.94447 9.27098 6.99594 9.34242 7.04502L9.34847 7.04966L9.44409 7.11252L9.48937 7.14247C9.54042 7.17524 9.59203 7.20702 9.64462 7.23753L9.66656 7.25047C9.71184 7.27649 9.75769 7.30208 9.80367 7.32711L9.85247 7.35242L9.94837 7.4022L9.96286 7.40881C10.0288 7.44116 10.0952 7.47252 10.1631 7.50205L10.2073 7.52033C10.2615 7.54325 10.3162 7.56575 10.3714 7.58685L10.4417 7.61272C10.4917 7.63128 10.5418 7.6483 10.5924 7.66517L10.6605 7.68697C10.7324 7.70919 10.8035 7.73745 10.8783 7.74997C14.7385 8.38939 15.6296 5.41728 15.6296 5.41728C14.8264 6.57434 13.2706 7.1263 11.6106 6.69542C11.5372 6.67608 11.4643 6.65503 11.3919 6.63228L11.3262 6.61105C11.2749 6.59453 11.224 6.57699 11.1734 6.55845L11.1043 6.53272C11.0491 6.51145 10.9942 6.48927 10.9396 6.4662L10.8953 6.4475C10.8275 6.4179 10.7603 6.38668 10.694 6.35384L10.593 6.30252L10.5348 6.27256C10.4917 6.24922 10.449 6.22503 10.407 6.20028L10.3764 6.18299C10.3242 6.15257 10.2726 6.12106 10.2217 6.08849L10.1751 6.05741L10.0749 5.99103C10.0041 5.94189 9.93455 5.89102 9.86625 5.83845L9.81928 5.80133C9.09267 5.22772 8.51667 4.44359 8.24287 3.55456C7.95586 2.63249 8.01773 1.59749 8.51498 0.757392M10.6028 0.684548C10.1621 1.33311 10.1188 2.13875 10.4247 2.85509C10.7471 3.61545 11.4079 4.21184 12.1792 4.49478L12.2752 4.52783L12.3173 4.54133C12.3628 4.55567 12.4079 4.57227 12.4549 4.58099C14.5863 4.99288 15.1644 3.48734 15.3183 3.26558C14.8119 3.99472 13.9608 4.1698 12.9165 3.91625C12.8311 3.89446 12.7468 3.86841 12.664 3.8382C12.5619 3.80189 12.4617 3.7603 12.3639 3.71361C12.1784 3.62426 12.0022 3.51677 11.8378 3.3927C10.9034 2.68367 10.323 1.33128 10.9327 0.229767" fill="#0868AC"/>
<path d="M10.123 13.5415H9.52873C9.51192 13.5421 9.49576 13.5482 9.48266 13.5588C9.46956 13.5693 9.46022 13.5838 9.45603 13.6001L9.24509 14.5761L9.03416 15.552C9.03001 15.5683 9.0207 15.5828 9.00762 15.5934C8.99454 15.604 8.9784 15.61 8.96159 15.6107H8.54098C8.12487 15.6107 8.17297 15.3228 8.25819 14.9285L8.26072 14.9165L8.27 14.8667L8.27169 14.8575L8.29067 14.7562L8.31106 14.6478L8.33272 14.5374L8.42862 14.0688L8.52467 13.6003C8.5265 13.5931 8.52663 13.5856 8.52505 13.5784C8.52346 13.5712 8.52021 13.5645 8.51555 13.5587C8.51088 13.553 8.50494 13.5484 8.4982 13.5454C8.49145 13.5424 8.4841 13.541 8.47672 13.5414H7.86683C7.85003 13.542 7.83389 13.548 7.82084 13.5586C7.8078 13.5692 7.79857 13.5838 7.79455 13.6001L7.66334 14.2223L7.53228 14.8445L7.532 14.8454L7.51991 14.9033C7.36887 15.5928 7.40881 16.2505 8.22978 16.2712L8.25369 16.2716H9.54223C9.55904 16.271 9.57518 16.2649 9.58826 16.2543C9.60134 16.2438 9.61065 16.2292 9.6148 16.213L9.89267 14.9067L10.1705 13.6003C10.1774 13.5679 10.1561 13.5416 10.123 13.5415ZM3.75889 13.5346H3.10639C3.08953 13.5353 3.07333 13.5413 3.06014 13.5518C3.04696 13.5623 3.03749 13.5768 3.03312 13.5931L2.97125 13.8662L2.90937 14.1393C2.9022 14.1715 2.92315 14.1978 2.9562 14.1978H3.61376C3.6306 14.1972 3.64679 14.1911 3.65992 14.1806C3.67305 14.17 3.68241 14.1555 3.68661 14.1392L3.74637 13.8662L3.80614 13.5932C3.81303 13.561 3.79194 13.5346 3.75889 13.5346ZM3.56961 14.3845H2.9119C2.89505 14.3852 2.87886 14.3913 2.86568 14.4018C2.8525 14.4123 2.84303 14.4268 2.83864 14.443L2.74625 14.8523L2.654 15.2613L2.62826 15.3786L2.53953 15.7963L2.45094 16.2141C2.44405 16.2463 2.42984 16.2983 2.4193 16.3295C2.4193 16.3295 2.29639 16.6952 2.08981 16.6909L2.06394 16.6904L1.8852 16.6871C1.86841 16.6875 1.85205 16.6933 1.83879 16.7036C1.82552 16.7139 1.81591 16.7282 1.81137 16.7444L1.74317 17.0311L1.67511 17.3177C1.66737 17.3498 1.68819 17.3762 1.72095 17.3768C1.83809 17.3782 2.1005 17.3811 2.25926 17.3811C2.77522 17.3811 3.04733 17.0952 3.22156 16.2726L3.42561 15.3284L3.617 14.4429C3.62389 14.411 3.60251 14.3845 3.56961 14.3845ZM15.6798 14.1632L15.6525 14.0506L15.6257 13.9352L15.612 13.877C15.5586 13.6693 15.4018 13.5497 15.0612 13.5497L14.531 13.5491L14.0428 13.5484H13.4934C13.4766 13.549 13.4604 13.5551 13.4474 13.5656C13.4343 13.5762 13.425 13.5907 13.421 13.607L13.3966 13.7218L13.3679 13.8573L13.3599 13.8954L13.1126 15.0542L12.8777 16.1542C12.8707 16.1865 12.8684 16.2262 12.8724 16.2422C12.8763 16.2584 12.9397 16.2716 12.9726 16.2716H13.4682C13.5012 16.2716 13.543 16.2657 13.561 16.2584C13.579 16.2511 13.6056 16.1862 13.6122 16.154L13.7002 15.7182L13.7884 15.2823L13.7885 15.2816L13.8004 15.2235L13.9072 14.7229L14.0016 14.2808C14.0058 14.2645 14.015 14.25 14.0281 14.2394C14.0411 14.2289 14.0572 14.2228 14.074 14.2221L15.6334 14.2214C15.6665 14.2217 15.6873 14.1954 15.6798 14.1632ZM17.6872 13.1451L17.5671 13.1455H17.0681C17.0498 13.1465 17.0319 13.1515 17.0157 13.1601C16.9995 13.1686 16.9854 13.1806 16.9743 13.1951L15.8705 14.812C15.8519 14.8393 15.8307 14.8354 15.8234 14.8033L15.7421 14.4471C15.7377 14.4308 15.7282 14.4163 15.715 14.4058C15.7018 14.3953 15.6856 14.3892 15.6687 14.3886H14.9592C14.9262 14.3886 14.9067 14.4145 14.9157 14.4461L15.2336 15.56C15.2426 15.5918 15.2433 15.6438 15.2352 15.6759L15.0966 16.2149C15.0883 16.247 15.1086 16.273 15.1416 16.273H15.8429C15.8599 16.2723 15.8762 16.2663 15.8896 16.2559C15.903 16.2455 15.9129 16.2312 15.9177 16.2149L16.0564 15.6759C16.0674 15.6379 16.0846 15.602 16.1075 15.5697L17.8993 13.1916C17.9193 13.1652 17.9084 13.1437 17.8755 13.144L17.6872 13.1451ZM12.0501 14.5399V14.5394C12.0477 14.5564 12.0393 14.5719 12.0265 14.5833C12.0136 14.5946 11.9971 14.6011 11.98 14.6014H11.0804C11.0492 14.6014 11.0334 14.5803 11.0381 14.5541L11.0389 14.552L11.0383 14.5523L11.0388 14.5494L11.0428 14.534C11.1288 14.3057 11.3037 14.1557 11.6326 14.1557C12.003 14.1556 12.0753 14.3364 12.0501 14.5399ZM11.7862 13.5016C10.6315 13.5016 10.3579 14.2024 10.2043 14.9099C10.0509 15.631 10.064 16.3051 11.259 16.3051H11.4038L11.4398 16.3049H11.4483L11.5917 16.3045H11.5942C11.9098 16.3032 12.2263 16.3008 12.3545 16.2999C12.3711 16.299 12.3871 16.2928 12.4 16.2822C12.4129 16.2715 12.422 16.257 12.426 16.2408L12.4744 16.0044L12.4838 15.9584L12.5415 15.6763C12.5433 15.6692 12.5435 15.6617 12.5419 15.6545C12.5403 15.6473 12.537 15.6405 12.5324 15.6348C12.5277 15.6291 12.5217 15.6246 12.515 15.6216C12.5083 15.6186 12.5009 15.6172 12.4935 15.6175H11.4193C10.9919 15.6175 10.8651 15.5041 10.9119 15.1702H12.6291L12.629 15.1704L12.6301 15.1702C12.6437 15.1696 12.6568 15.1651 12.6679 15.1573C12.679 15.1494 12.6876 15.1385 12.6927 15.1259L12.6967 15.111L12.6966 15.1112C12.9515 14.1494 12.8784 13.5017 11.7862 13.5016ZM6.32853 14.5363L6.31222 14.5938L6.18256 15.0535L6.0529 15.5129C6.0476 15.5292 6.03744 15.5435 6.02379 15.5538C6.01014 15.5641 5.99365 15.57 5.97655 15.5707H5.2903C4.7697 15.5707 4.64286 15.1635 4.7697 14.563C4.8964 13.9487 5.14489 13.5669 5.65733 13.5283C6.35764 13.4754 6.4977 13.9679 6.32853 14.5363ZM6.79934 15.5354C6.79934 15.5354 7.12292 14.7496 7.19633 14.296C7.29659 13.6886 6.99242 12.8074 5.81764 12.8074C4.64961 12.8074 4.14223 13.6485 3.94873 14.563C3.75523 15.4841 4.00878 16.2917 5.1702 16.2851L6.08651 16.2817L6.94278 16.2786C6.95975 16.2778 6.97606 16.2717 6.98949 16.2613C7.00292 16.2509 7.01283 16.2366 7.01787 16.2204L7.16708 15.6514C7.17537 15.6194 7.15526 15.5932 7.12222 15.5929L6.9792 15.5921L6.83619 15.5912C6.8082 15.5911 6.79217 15.5728 6.79555 15.5488L6.79934 15.5354ZM12.5818 15.0093C12.5819 15.0145 12.5808 15.0196 12.5789 15.0244C12.5769 15.0292 12.574 15.0335 12.5704 15.0372C12.5667 15.0409 12.5624 15.0438 12.5576 15.0458C12.5528 15.0477 12.5477 15.0488 12.5425 15.0488C12.5374 15.0488 12.5322 15.0478 12.5275 15.0458C12.5227 15.0438 12.5183 15.041 12.5147 15.0373C12.511 15.0337 12.5081 15.0293 12.5061 15.0245C12.5041 15.0198 12.5031 15.0147 12.5031 15.0095C12.5031 14.999 12.5072 14.989 12.5146 14.9816C12.5219 14.9742 12.532 14.9701 12.5424 14.97C12.5528 14.97 12.5629 14.9741 12.5703 14.9815C12.5777 14.9889 12.5818 14.9989 12.5818 15.0093Z" fill="#131B28"/>
</svg>
