<svg width="19" height="18" viewBox="0 0 19 18" fill="none" xmlns="http://www.w3.org/2000/svg">
<g clip-path="url(#clip0_302_111)">
<path d="M14.0613 0H4.49881C2.16886 0 0.28006 1.8888 0.28006 4.21875V13.7812C0.28006 16.1112 2.16886 18 4.49881 18H14.0613C16.3913 18 18.2801 16.1112 18.2801 13.7812V4.21875C18.2801 1.8888 16.3913 0 14.0613 0Z" fill="#242938"/>
<path fill-rule="evenodd" clip-rule="evenodd" d="M15.4567 5.50646C15.4612 5.52355 15.4636 5.5412 15.4636 5.55899V8.31517C15.4636 8.35053 15.4544 8.38527 15.437 8.41585C15.4196 8.44638 15.3944 8.47178 15.3641 8.48947L13.0827 9.82133V12.4612C13.0828 12.4964 13.0737 12.531 13.0563 12.5616C13.039 12.5921 13.0139 12.6177 12.9836 12.6356L8.22151 15.4154C8.21061 15.4216 8.19872 15.4257 8.18684 15.4299C8.18234 15.4315 8.17819 15.4342 8.17348 15.4355C8.14019 15.4444 8.10517 15.4444 8.07188 15.4355C8.06647 15.434 8.06147 15.4309 8.05627 15.429C8.04537 15.425 8.03398 15.4214 8.02358 15.4154L3.26243 12.6356C3.23212 12.6179 3.207 12.5925 3.18959 12.562C3.17208 12.5313 3.16288 12.4965 3.16287 12.4612V4.19267C3.16287 4.17453 3.16533 4.15695 3.16983 4.13994C3.17124 4.1341 3.17476 4.12883 3.17672 4.12306C3.18045 4.11252 3.1839 4.10176 3.18938 4.09192C3.19311 4.08538 3.19852 4.0801 3.20302 4.07413C3.20865 4.06604 3.21392 4.05774 3.2206 4.05071C3.22622 4.04495 3.23375 4.04066 3.24015 4.03567C3.24732 4.02962 3.25379 4.02308 3.26194 4.0183H3.26222L5.64279 2.62843C5.67287 2.61087 5.70707 2.60162 5.7419 2.60162C5.77673 2.60162 5.81093 2.61087 5.841 2.62843L8.22172 4.0183H8.22221C8.23008 4.02336 8.23683 4.02962 8.24401 4.03538C8.2504 4.04045 8.25758 4.04495 8.26327 4.0505C8.27023 4.05774 8.27522 4.06604 8.28113 4.07413C8.28535 4.0801 8.29104 4.08538 8.29449 4.09192C8.30018 4.10197 8.30342 4.11252 8.30743 4.12306C8.3094 4.12883 8.31284 4.1341 8.31432 4.14015C8.31889 4.15731 8.32121 4.17495 8.32128 4.19267V9.35713L10.3051 8.19887V5.55863C10.3051 5.54106 10.3075 5.52327 10.312 5.50646C10.3138 5.50042 10.317 5.49514 10.319 5.48938C10.3229 5.47883 10.3264 5.468 10.3319 5.45823C10.3356 5.45169 10.341 5.44642 10.3452 5.44037C10.3512 5.43235 10.3561 5.42406 10.3631 5.41703C10.3688 5.41126 10.376 5.40697 10.3824 5.40191C10.3898 5.39593 10.3963 5.38939 10.4042 5.38461H10.4045L12.7854 3.99467C12.8155 3.97708 12.8497 3.96781 12.8845 3.96781C12.9193 3.96781 12.9535 3.97708 12.9836 3.99467L15.3643 5.38461C15.3727 5.38967 15.3791 5.39586 15.3866 5.4017C15.3927 5.40669 15.3999 5.41126 15.4056 5.41674C15.4126 5.42406 15.4175 5.43235 15.4235 5.44037C15.4279 5.44642 15.4334 5.45162 15.4368 5.45823C15.4425 5.46807 15.4458 5.47883 15.4497 5.48938C15.452 5.49514 15.4553 5.50042 15.4567 5.50646ZM15.0668 8.19887V5.90689L14.2336 6.39317L13.0827 7.06515V9.35713L15.067 8.19887H15.0668ZM12.6861 12.3449V10.0515L11.554 10.7071L8.32107 12.5781V14.8931L12.6861 12.3449ZM3.55972 4.54058V12.3449L7.92422 14.8929V12.5783L5.64413 11.2698L5.64343 11.2693L5.64237 11.2688C5.63471 11.2643 5.62831 11.2577 5.62107 11.2522C5.61488 11.2472 5.60771 11.2432 5.60229 11.2376L5.6018 11.2369C5.59533 11.2306 5.59083 11.2229 5.58542 11.2158C5.5805 11.209 5.57452 11.2033 5.57058 11.1962L5.5703 11.1954C5.5658 11.1879 5.56306 11.1789 5.5599 11.1703C5.55666 11.1628 5.55244 11.1558 5.55047 11.1477V11.1474C5.54801 11.1379 5.54752 11.1279 5.54647 11.118C5.54548 11.1105 5.54351 11.103 5.54351 11.0955V5.69891L4.39285 5.02665L3.55972 4.54079V4.54058ZM5.74222 3.03484L3.7587 4.19274L5.74172 5.35051L7.72503 4.19246L5.74172 3.03491L5.74222 3.03484ZM6.77377 10.2604L7.92451 9.58874V4.54058L7.0913 5.02693L5.94043 5.69884V10.7471L6.77377 10.2604ZM12.8846 4.40115L10.9012 5.55899L12.8846 6.71675L14.8676 5.5587L12.8846 4.40115ZM12.6861 7.06515L11.5351 6.39317L10.7021 5.90689V8.19887L11.8527 8.87056L12.6861 9.35713V7.06515ZM8.12244 12.2302L11.0315 10.546L12.4857 9.70454L10.5038 8.54748L8.222 9.87962L6.14229 11.0937L8.12244 12.2302Z" fill="#FF2D20"/>
</g>
<defs>
<clipPath id="clip0_302_111">
<rect width="18" height="18" fill="white" transform="translate(0.28006)"/>
</clipPath>
</defs>
</svg>
