<svg width="19" height="18" viewBox="0 0 19 18" fill="none" xmlns="http://www.w3.org/2000/svg">
<g clip-path="url(#clip0_302_144)">
<path d="M14.5725 0H5.01004C2.68009 0 0.79129 1.8888 0.79129 4.21875V13.7812C0.79129 16.1112 2.68009 18 5.01004 18H14.5725C16.9025 18 18.7913 16.1112 18.7913 13.7812V4.21875C18.7913 1.8888 16.9025 0 14.5725 0Z" fill="#023430"/>
<path d="M12.8269 7.56499C12.086 4.2968 10.5419 3.42675 10.148 2.81173C9.98561 2.54079 9.84172 2.25915 9.71738 1.96875C9.69657 2.25914 9.65832 2.44195 9.41152 2.66217C8.91603 3.10395 6.81158 4.81887 6.63446 8.53228C6.46944 11.9946 9.17977 14.1295 9.5378 14.3502C9.81315 14.4857 10.1485 14.3531 10.3121 14.2287C11.6186 13.3321 13.4037 10.9416 12.8283 7.56499" fill="#10AA50"/>
<path d="M9.8296 12.5066C9.76139 13.3635 9.71253 13.8615 9.53928 14.3512C9.53928 14.3512 9.65297 15.167 9.73285 16.0313H10.0154C10.0828 15.4227 10.1858 14.8185 10.3237 14.222C9.95785 14.042 9.84366 13.2586 9.8296 12.5066Z" fill="#B8C4C2"/>
<path d="M10.3232 14.2225C9.95351 14.0517 9.84657 13.2517 9.83012 12.5066C9.92152 11.2773 9.94818 10.0441 9.90999 8.81198C9.89058 8.16553 9.91913 2.82431 9.75073 2.0423C9.86594 2.30715 9.99868 2.56404 10.1481 2.81123C10.542 3.42675 12.0865 4.2968 12.8269 7.56499C13.4037 10.9358 11.6283 13.32 10.3232 14.2225Z" fill="#12924F"/>
</g>
<defs>
<clipPath id="clip0_302_144">
<rect width="18" height="18" fill="white" transform="translate(0.79129)"/>
</clipPath>
</defs>
</svg>
