<svg width="27" height="18" viewBox="0 0 27 18" fill="none" xmlns="http://www.w3.org/2000/svg">
<g clip-path="url(#clip0_302_137)">
<path d="M8.01929 11.8778L8.82181 14.4817C9.00212 15.0729 9.07732 15.4856 9.0472 15.7209C9.48611 14.5454 9.79278 13.2643 9.96726 11.8778H10.9322C10.5173 14.1351 9.97005 15.7754 9.29074 16.7987C8.76147 17.5872 8.18165 17.9814 7.55026 17.9814C7.38191 17.9814 7.17437 17.9306 6.9281 17.8296V17.2855C7.04842 17.3031 7.18959 17.3126 7.35195 17.3126C7.6465 17.3126 7.8839 17.2309 8.06452 17.068C8.28078 16.8695 8.38904 16.6464 8.38904 16.399C8.38904 16.2302 8.30461 15.8836 8.13652 15.3594L7.01835 11.8778H8.01929ZM1.87726 10.2773L3.34718 14.7622H3.35626L4.8352 10.2773H6.04352C6.3081 12.5015 6.46438 14.5365 6.51234 16.3811H5.49361C5.45777 14.6568 5.35849 13.0354 5.19612 11.5165H5.18725L3.63595 16.3811H2.86015L1.31823 11.5165H1.30916C1.19476 12.9752 1.12276 14.5966 1.09274 16.3811H0.163757C0.223792 14.2108 0.374032 12.1764 0.614479 10.2773H1.87726Z" fill="#00758F"/>
<path d="M18.3442 10.1868C19.9253 10.1868 20.7159 11.1969 20.7159 13.2163C20.7159 14.3136 20.4782 15.1425 20.0031 15.7024C19.9175 15.8048 19.8229 15.8932 19.7232 15.9751L20.8421 16.5283L20.8411 16.5283L20.4438 17.2143L18.9866 16.3641C18.7451 16.4356 18.4793 16.4714 18.1897 16.4714C17.4133 16.4714 16.8334 16.2451 16.45 15.7932C16.0291 15.2932 15.8188 14.5061 15.8188 13.4332C15.8188 12.3421 16.0562 11.5163 16.5314 10.9557C16.9642 10.4428 17.5686 10.1868 18.3442 10.1868ZM13.5022 10.1956C14.0673 10.1956 14.5812 10.3468 15.044 10.6482L14.8089 11.1721C14.4129 11.0037 14.0224 10.9192 13.6374 10.9192C13.3249 10.9192 13.0841 10.9944 12.9163 11.1457C12.7476 11.2957 12.6432 11.4887 12.6432 11.724C12.6432 12.0855 12.9007 12.3991 13.3763 12.6639C13.5321 12.7491 13.6874 12.8353 13.8421 12.9224L13.8776 12.9424L13.8954 12.9524L13.9309 12.9723L13.9487 12.9823L13.9841 13.0023C14.3441 13.2053 14.6829 13.399 14.6829 13.399C15.1584 13.7366 15.3955 14.0965 15.3955 14.6892C15.3955 15.2069 15.2058 15.6318 14.8276 15.9643C14.4492 16.2954 13.9408 16.4613 13.3042 16.4613C12.7087 16.4613 12.1316 16.2703 11.5727 15.8914L11.8342 15.3671C12.3152 15.6082 12.7505 15.7286 13.1414 15.7286C13.508 15.7286 13.795 15.6468 14.0026 15.4852C14.2097 15.3223 14.3339 15.0952 14.3339 14.8073C14.3339 14.4449 14.0818 14.135 13.6193 13.8752C13.4745 13.7952 13.3302 13.7144 13.1863 13.6329L13.1509 13.6128C13.0858 13.5761 13.0202 13.5388 12.956 13.5024L12.9212 13.4826C12.6089 13.3049 12.3389 13.1497 12.3389 13.1497C11.8766 12.8116 11.6448 12.4487 11.6448 11.8509C11.6448 11.3564 11.8176 10.9567 12.1629 10.6527C12.509 10.348 12.9555 10.1956 13.5022 10.1956ZM22.5742 10.2773V15.6303H24.4948V16.3811H21.6001V10.2773H22.5742ZM25.562 15.6326V15.7595H25.3508V16.3805H25.1894V15.7595H24.97V15.6326H25.562H25.562ZM25.9519 15.6326L26.1546 16.1424L26.3409 15.6326H26.5697V16.3805H26.4176V15.8113L26.2056 16.3805H26.0959L25.8835 15.8113H25.8754V16.3805H25.7314V15.6326H25.9519H25.9519ZM18.2447 10.9374C17.313 10.9374 16.8468 11.7064 16.8468 13.2434C16.8468 14.1238 16.9703 14.7622 17.2169 15.1601C17.4453 15.5283 17.803 15.7121 18.29 15.7121C19.2218 15.7121 19.6879 14.9371 19.6879 13.3879C19.6879 12.5198 19.5644 11.8869 19.3181 11.4887C19.0894 11.1213 18.7319 10.9374 18.2448 10.9374H18.2447Z" fill="#F29111"/>
<path d="M15.8025 0.37821C16.1116 -0.381297 17.1924 0.193877 17.6118 0.459184C17.7146 0.525562 17.8325 0.665797 17.9503 0.717631C18.1342 0.724852 18.3179 0.739241 18.5021 0.746926C18.8476 0.828107 19.1711 0.894433 19.4434 1.04947C20.7084 1.79448 21.5319 2.55368 22.2898 3.8077C22.4518 4.07332 22.5327 4.36075 22.665 4.64818C22.8486 5.07662 23.0549 5.52636 23.268 5.93149C23.3634 6.12356 23.4372 6.33714 23.5697 6.49934C23.6215 6.57351 23.7684 6.59538 23.8562 6.63968C24.0991 6.76537 24.3933 6.86079 24.6216 7.0083C25.0481 7.27422 25.4605 7.5911 25.8353 7.91552C25.975 8.04074 26.0702 8.21801 26.2034 8.35046V8.4173C26.0852 8.45356 25.9675 8.49069 25.8496 8.52045C25.5922 8.58657 25.3642 8.57161 25.1144 8.63779C24.9601 8.68255 24.7685 8.74161 24.6067 8.75662L24.6216 8.77168C24.7168 9.04374 25.232 9.265 25.4676 9.42772C25.7537 9.63423 26.0189 9.88469 26.2323 10.1723C26.306 10.2457 26.3797 10.3125 26.453 10.3857C26.5043 10.4599 26.5187 10.5558 26.5706 10.6219V10.6443C26.5132 10.624 26.4719 10.5853 26.4327 10.5449L26.4094 10.5205C26.386 10.4963 26.3624 10.4724 26.3355 10.4528C26.1732 10.3419 26.012 10.2093 25.8496 10.1062C25.5705 9.92904 25.2467 9.82625 24.9601 9.64847C24.7981 9.54526 24.6436 9.42772 24.4891 9.30961C24.3491 9.2061 24.1949 9.00733 24.1069 8.85982C24.0551 8.77833 24.048 8.68255 23.9887 8.6236C23.9993 8.52514 24.0895 8.4959 24.1806 8.47187L24.2015 8.46635C24.2329 8.4582 24.2636 8.45005 24.2905 8.43927C24.6728 8.27691 25.1287 8.21801 25.7174 8.23276C25.6952 8.08494 25.3274 7.90077 25.21 7.81226C24.9743 7.64237 24.7247 7.4651 24.4746 7.31048C24.3421 7.22951 24.1138 7.1704 23.967 7.10423C23.7684 7.02305 23.327 6.94192 23.2169 6.78729C23.0299 6.54355 22.8956 6.25281 22.7653 5.95914L22.7298 5.87899C22.7179 5.85228 22.7061 5.82558 22.6942 5.79889C22.5401 5.44524 22.3486 5.07652 22.1942 4.7144C22.1134 4.53776 22.0763 4.38272 21.9879 4.21329C21.4511 3.17363 20.6567 2.30318 19.6935 1.69102C19.377 1.49184 19.024 1.3075 18.6344 1.18223C18.4136 1.11554 18.1486 1.15242 17.9134 1.10125H17.7586C17.6264 1.06401 17.5161 0.923935 17.413 0.850078C17.1853 0.695453 16.9572 0.591631 16.6849 0.48131C16.5895 0.437058 16.317 0.334009 16.2219 0.415138C16.163 0.42994 16.1332 0.45217 16.1187 0.511276C16.0601 0.599471 16.1116 0.73233 16.1481 0.813665C16.2585 1.04937 16.4129 1.18945 16.5529 1.38863C16.6775 1.56528 16.8323 1.76447 16.9207 1.95654C17.1113 2.3694 17.2001 2.82683 17.3767 3.23964C17.4422 3.39489 17.5458 3.57153 17.6412 3.71156C17.722 3.82271 17.8689 3.90306 17.9134 4.04376C18.002 4.19127 17.7808 4.67799 17.7295 4.83256C17.5379 5.4374 17.5751 6.27814 17.7957 6.80241L17.8075 6.83005L17.8192 6.85806C17.8998 7.05007 17.986 7.25684 18.2002 7.31053C18.215 7.29588 18.2002 7.30357 18.2295 7.29588C18.2813 6.89008 18.2959 6.49929 18.4358 6.18179C18.5166 5.98328 18.678 5.84294 18.7886 5.68089C18.8624 5.72503 18.8624 5.85815 18.9063 5.94624C19.002 6.17473 19.1048 6.42523 19.2228 6.65438C19.465 7.1263 19.7375 7.58383 20.0463 7.99665C20.1497 8.1441 20.2965 8.30641 20.4288 8.43922C20.4878 8.49064 20.5538 8.52035 20.5981 8.58652H20.6125V8.6088C20.3919 8.52746 20.252 8.29919 20.076 8.16592C19.7447 7.91541 19.3479 7.53922 19.1196 7.17824C19.024 6.97101 18.9208 6.77239 18.8178 6.56619V6.55128C18.7738 6.61018 18.7886 6.66867 18.7666 6.75779C18.6711 7.1263 18.7446 7.5467 18.4136 7.67925C18.0385 7.83449 17.7586 7.42874 17.6412 7.24436C17.2659 6.63236 17.1631 5.59991 17.4278 4.7665C17.4866 4.58201 17.4946 4.36075 17.5972 4.21345C17.575 4.08028 17.4724 4.04387 17.413 3.96227C17.3101 3.82281 17.2219 3.66035 17.1413 3.50546C16.9865 3.20292 16.8763 2.84142 16.7588 2.51696C16.7071 2.38446 16.6923 2.25145 16.6408 2.12601C16.5529 1.93457 16.3909 1.7425 16.2659 1.57312C16.0967 1.32968 15.6038 0.857866 15.8025 0.37821ZM18.2148 1.82311C18.2345 1.84281 18.2582 1.86004 18.2827 1.87701L18.3123 1.89733C18.3518 1.92466 18.39 1.95344 18.4134 1.99264C18.4506 2.04452 18.4575 2.09574 18.5019 2.14773C18.5019 2.32499 18.4506 2.44285 18.3469 2.51629C18.3469 2.51629 18.3398 2.52403 18.3325 2.53125C18.2737 2.41309 18.2222 2.29555 18.163 2.17749C18.0901 2.07444 17.987 1.99269 17.9275 1.87494H17.9133V1.86014C18.002 1.83822 18.0901 1.82311 18.2148 1.82311Z" fill="#00758F"/>
</g>
<defs>
<clipPath id="clip0_302_137">
<rect width="26.4069" height="18" fill="white" transform="translate(0.163757)"/>
</clipPath>
</defs>
</svg>
