<svg width="30" height="18" viewBox="0 0 30 18" fill="none" xmlns="http://www.w3.org/2000/svg">
<g clip-path="url(#clip0_302_88)">
<path d="M14.9229 17.9481C14.8236 17.9481 14.7308 17.9216 14.6446 17.8752L13.7635 17.3518C13.631 17.2789 13.6972 17.2524 13.737 17.2392C13.9159 17.1796 13.949 17.1663 14.1345 17.0604C14.1544 17.0471 14.1809 17.0537 14.2008 17.0669L14.8766 17.4711C14.9031 17.4843 14.9362 17.4843 14.956 17.4711L17.5996 15.9406C17.6261 15.9274 17.6394 15.9008 17.6394 15.8678V12.8135C17.6394 12.7803 17.6261 12.7539 17.5996 12.7406L14.956 11.2168C14.9296 11.2035 14.8964 11.2035 14.8766 11.2168L12.233 12.7406C12.2066 12.7538 12.1933 12.787 12.1933 12.8134V15.8677C12.1933 15.8943 12.2066 15.9273 12.233 15.9406L12.9552 16.358C13.3461 16.5568 13.5912 16.3249 13.5912 16.093V13.0785C13.5912 13.0387 13.6244 12.9989 13.6708 12.9989H14.0086C14.0484 12.9989 14.0881 13.0321 14.0881 13.0785V16.093C14.0881 16.6164 13.8032 16.9212 13.3063 16.9212C13.154 16.9212 13.0347 16.9212 12.6968 16.7555L12.0012 16.358C11.8289 16.2587 11.7229 16.0731 11.7229 15.8744V12.8201C11.7229 12.6213 11.8289 12.4358 12.0012 12.3364L14.6446 10.806C14.8103 10.7132 15.0356 10.7132 15.2012 10.806L17.8447 12.3364C18.017 12.4358 18.123 12.6213 18.123 12.8201V15.8744C18.123 16.0731 18.017 16.2587 17.8447 16.358L15.2012 17.8885C15.1151 17.9283 15.0157 17.9481 14.9229 17.9481ZM15.7378 15.8479C14.5784 15.8479 14.3399 15.3178 14.3399 14.8673C14.3399 14.8275 14.373 14.7878 14.4194 14.7878H14.7639C14.8037 14.7878 14.8368 14.8143 14.8368 14.8541C14.8898 15.2052 15.0422 15.3775 15.7445 15.3775C16.301 15.3775 16.5396 15.2516 16.5396 14.9534C16.5396 14.7812 16.4733 14.6553 15.6054 14.5692C14.8832 14.4963 14.4327 14.3373 14.4327 13.7609C14.4327 13.2242 14.8832 12.9062 15.6385 12.9062C16.4865 12.9062 16.9039 13.1977 16.957 13.8337C16.957 13.8537 16.9503 13.8735 16.9371 13.8934C16.9238 13.9066 16.9039 13.9199 16.884 13.9199H16.5395C16.5064 13.9199 16.4733 13.8934 16.4667 13.8603C16.3872 13.4959 16.1818 13.3766 15.6385 13.3766C15.029 13.3766 14.956 13.5886 14.956 13.7476C14.956 13.9398 15.0422 13.9994 15.8637 14.1054C16.6786 14.2114 17.063 14.3638 17.063 14.9335C17.0563 15.5166 16.5793 15.8479 15.7378 15.8479Z" fill="#539E43"/>
<path d="M6.72075 6.00261C6.72075 5.88338 6.65448 5.77068 6.54849 5.71106L3.73934 4.0945C3.69291 4.06796 3.63994 4.05471 3.58697 4.04807H3.56043C3.50746 4.04807 3.45443 4.06796 3.40806 4.0945L0.598912 5.71106C0.492861 5.77068 0.426651 5.88332 0.426651 6.00261L0.433301 10.3488C0.433301 10.4084 0.466434 10.468 0.519403 10.4946C0.572428 10.5277 0.638638 10.5277 0.685071 10.4946L2.35466 9.54053C2.46065 9.48091 2.52692 9.36827 2.52692 9.24903V7.21503C2.52692 7.0958 2.59313 6.98315 2.69918 6.92354L3.40806 6.51275C3.46108 6.47961 3.5207 6.46631 3.58032 6.46631C3.63994 6.46631 3.69956 6.47961 3.74599 6.51275L4.45487 6.92354C4.56092 6.98315 4.62713 7.09574 4.62713 7.21503V9.24903C4.62713 9.36827 4.6934 9.48091 4.79939 9.54053L6.46898 10.4946C6.49477 10.5108 6.52463 10.5194 6.55511 10.5194C6.58559 10.5194 6.61544 10.5108 6.64124 10.4946C6.69426 10.468 6.7274 10.4084 6.7274 10.3488L6.72075 6.00261ZM20.2232 0.0199061C20.1702 -0.00663535 20.104 -0.00663535 20.0575 0.0199061C20.0046 0.0530398 19.9714 0.106008 19.9714 0.165626V4.47215C19.9714 4.51188 19.9516 4.55161 19.9118 4.57815C19.8721 4.59798 19.8323 4.59798 19.7926 4.57815L19.0903 4.17401C19.0388 4.14469 18.9806 4.12928 18.9213 4.12928C18.8621 4.12928 18.8039 4.14469 18.7524 4.17401L15.9432 5.79722C15.8372 5.85684 15.771 5.96948 15.771 6.08871V9.32849C15.771 9.44772 15.8372 9.56042 15.9432 9.62004L18.7524 11.2433C18.8039 11.2726 18.8621 11.288 18.9213 11.288C18.9806 11.288 19.0388 11.2726 19.0903 11.2433L21.8994 9.62004C22.0054 9.56042 22.0717 9.44778 22.0717 9.32849V1.25222C22.0717 1.12633 22.0054 1.01375 21.8994 0.954072L20.2232 0.0199061ZM19.9648 8.26184C19.9648 8.29498 19.9516 8.32146 19.9251 8.3347L18.9644 8.89121C18.951 8.89776 18.9363 8.90116 18.9213 8.90116C18.9064 8.90116 18.8917 8.89776 18.8783 8.89121L17.9176 8.3347C17.8911 8.32146 17.8778 8.28833 17.8778 8.26184V7.14877C17.8778 7.11563 17.8911 7.08915 17.9176 7.07591L18.8783 6.51934C18.8917 6.51279 18.9064 6.50939 18.9213 6.50939C18.9363 6.50939 18.951 6.51279 18.9644 6.51934L19.9251 7.07591C19.9516 7.08909 19.9648 7.12228 19.9648 7.14877V8.26184ZM29.5716 7.12228C29.6776 7.06266 29.7372 6.95002 29.7372 6.83073V6.04234C29.7372 5.9231 29.671 5.81046 29.5716 5.75084L26.7823 4.13428C26.7308 4.10497 26.6726 4.08955 26.6134 4.08955C26.5541 4.08955 26.4959 4.10497 26.4444 4.13428L23.6352 5.75743C23.5292 5.81705 23.463 5.9297 23.463 6.04893V9.28876C23.463 9.408 23.5293 9.52064 23.6352 9.58026L26.4245 11.1703C26.5305 11.23 26.6564 11.23 26.7558 11.1703L28.4453 10.2296C28.4983 10.2031 28.5314 10.1435 28.5314 10.0839C28.5314 10.0242 28.4983 9.96462 28.4453 9.93808L25.6229 8.31487C25.5698 8.28173 25.5367 8.22877 25.5367 8.16915V7.15547C25.5367 7.09586 25.5698 7.03624 25.6229 7.0097L26.504 6.50615C26.5298 6.48992 26.5597 6.48131 26.5901 6.48131C26.6206 6.48131 26.6505 6.48992 26.6763 6.50615L27.5575 7.0097C27.6105 7.04283 27.6436 7.0958 27.6436 7.15547V7.95051C27.6436 8.01013 27.6767 8.06975 27.7297 8.09623C27.7555 8.11247 27.7854 8.12109 27.8159 8.12109C27.8463 8.12109 27.8762 8.11247 27.902 8.09623L29.5716 7.12228Z" fill="#333333"/>
<path d="M26.5703 6.96984C26.5801 6.96336 26.5916 6.9599 26.6034 6.9599C26.6152 6.9599 26.6267 6.96336 26.6365 6.96984L27.1732 7.28123C27.193 7.29453 27.2063 7.31436 27.2063 7.34085V7.96368C27.2063 7.99017 27.1931 8.01006 27.1732 8.0233L26.6365 8.33469C26.6267 8.34117 26.6152 8.34463 26.6034 8.34463C26.5916 8.34463 26.5801 8.34117 26.5703 8.33469L26.0337 8.0233C26.0138 8.01006 26.0005 7.99017 26.0005 7.96368V7.3409C26.0005 7.31436 26.0137 7.29447 26.0337 7.28129L26.5703 6.96984Z" fill="#539E43"/>
<path d="M11.4181 4.14753C11.3666 4.11822 11.3084 4.10281 11.2492 4.10281C11.1899 4.10281 11.1317 4.11822 11.0802 4.14753L8.29099 5.75738C8.18494 5.817 8.12532 5.92964 8.12532 6.04888V9.27547C8.12532 9.3947 8.19159 9.50734 8.29099 9.56696L11.0802 11.1769C11.1317 11.2062 11.1899 11.2216 11.2492 11.2216C11.3084 11.2216 11.3666 11.2062 11.4181 11.1769L14.2074 9.56696C14.3134 9.50734 14.3731 9.3947 14.3731 9.27547V6.04894C14.3731 5.9297 14.3068 5.81706 14.2074 5.75744L11.4181 4.14753Z" fill="url(#paint0_linear_302_88)"/>
</g>
<defs>
<linearGradient id="paint0_linear_302_88" x1="434.149" y1="128.59" x2="128.419" y2="608.981" gradientUnits="userSpaceOnUse">
<stop stop-color="#41873F"/>
<stop offset="0.3288" stop-color="#418B3D"/>
<stop offset="0.6352" stop-color="#419637"/>
<stop offset="0.9319" stop-color="#3FA92D"/>
<stop offset="1" stop-color="#3FAE2A"/>
</linearGradient>
<clipPath id="clip0_302_88">
<rect width="29.3503" height="18" fill="white" transform="translate(0.413406)"/>
</clipPath>
</defs>
</svg>
