<svg width="47" height="18" viewBox="0 0 47 18" fill="none" xmlns="http://www.w3.org/2000/svg">
<g clip-path="url(#clip0_302_205)">
<path d="M0.266937 0V15.4158H13.0986V18H23.3461V15.4158H46.4254V0H0.266937Z" fill="#CB3837"/>
<path d="M7.9303 2.58417H2.85109V5.16833V12.8317H7.9303V5.16833H10.5145V12.8317H13.0986V5.16833V2.58417H7.9303Z" fill="white"/>
<path d="M15.6828 2.58417V15.4159H20.8511V12.8317H25.9303V2.58417H15.6828ZM23.3461 10.2475H20.8511V5.16833H23.3461V10.2475Z" fill="white"/>
<path d="M33.5937 2.58417H28.5145V5.16833V12.8317H33.5937V5.16833H36.1778V12.8317H38.762V5.16833H41.3461V12.8317H43.9303V5.16833V2.76239V2.58417H33.5937Z" fill="white"/>
</g>
<defs>
<clipPath id="clip0_302_205">
<rect width="46.1584" height="18" fill="white" transform="translate(0.266937)"/>
</clipPath>
</defs>
</svg>
