<svg width="30" height="18" viewBox="0 0 30 18" fill="none" xmlns="http://www.w3.org/2000/svg">
<g clip-path="url(#clip0_302_195)">
<path d="M16.2174 17.8901H26.4104C26.7343 17.8901 27.0522 17.8075 27.3327 17.6506C27.6112 17.4952 27.844 17.2693 28.0075 16.9956C28.1689 16.7251 28.2542 16.416 28.2544 16.1011C28.2544 15.787 28.1689 15.4785 28.0068 15.2066L21.1614 3.70592C20.9978 3.43221 20.7651 3.20637 20.4866 3.05108C20.2048 2.89373 19.8874 2.81127 19.5646 2.81157C19.2419 2.81127 18.9244 2.89373 18.6426 3.05108C18.3641 3.20635 18.1313 3.43219 17.9677 3.70592L16.2174 6.6484L12.7953 0.894348C12.6315 0.620663 12.3987 0.394875 12.12 0.239653C11.8382 0.0822965 11.5207 -0.000211658 11.1979 6.02324e-07C10.8751 -0.000257127 10.5576 0.0821996 10.2757 0.239505C9.99715 0.394788 9.76433 0.620628 9.60064 0.894348L1.08233 15.2066C0.92063 15.477 0.835096 15.786 0.834793 16.1011C0.834793 16.415 0.919735 16.7236 1.08159 16.9956C1.2452 17.2693 1.47797 17.4951 1.75651 17.6504C2.0384 17.8078 2.35595 17.8904 2.67883 17.8901H9.07701C11.6122 17.8901 13.4818 16.8101 14.7681 14.7027L17.8912 9.45625L19.564 6.64855L24.5847 15.0824H17.8912L16.2174 17.8901ZM8.97273 15.0795L4.50754 15.0785L11.2009 3.834L14.5405 9.45625L12.3045 13.2141C11.4502 14.5813 10.4797 15.0795 8.97273 15.0795Z" fill="#00DC82"/>
</g>
<defs>
<clipPath id="clip0_302_195">
<rect width="29" height="18" fill="white" transform="translate(0.208725)"/>
</clipPath>
</defs>
</svg>
