<svg width="35" height="18" viewBox="0 0 35 18" fill="none" xmlns="http://www.w3.org/2000/svg">
<g clip-path="url(#clip0_302_82)">
<path d="M17.3468 17.9467C26.7724 17.9467 34.4134 13.9292 34.4134 8.97333C34.4134 4.0175 26.7724 0 17.3468 0C7.9211 0 0.28009 4.0175 0.28009 8.97333C0.28009 13.9292 7.9211 17.9467 17.3468 17.9467Z" fill="url(#paint0_radial_302_82)"/>
<path d="M17.3467 17.28C26.4042 17.28 33.7467 13.561 33.7467 8.97332C33.7467 4.38568 26.4042 0.666656 17.3467 0.666656C8.28928 0.666656 0.946747 4.38568 0.946747 8.97332C0.946747 13.561 8.28928 17.28 17.3467 17.28Z" fill="#6181B6"/>
<path d="M20.6668 11.6667L21.4801 7.48001C21.6668 6.53335 21.5068 5.82668 21.0268 5.38668C20.5601 4.96001 19.7601 4.74668 18.5868 4.74668H17.1734L17.5734 2.66668C17.5868 2.58668 17.5734 2.50668 17.5201 2.44001C17.4668 2.37335 17.4001 2.34668 17.3201 2.34668H15.3734C15.2401 2.34668 15.1334 2.44001 15.1068 2.56001L14.2401 7.00001C14.1601 6.49335 13.9734 6.06668 13.6534 5.72001C13.0801 5.06668 12.1868 4.73335 10.9734 4.73335H7.22676C7.09343 4.73335 6.98676 4.82668 6.96009 4.94668L5.21343 13.96C5.20009 14.04 5.21343 14.12 5.26676 14.1867C5.32009 14.2533 5.38676 14.28 5.46676 14.28H7.42676C7.56009 14.28 7.66676 14.1867 7.69343 14.0667L8.12009 11.8933H9.57343C10.3334 11.8933 10.9868 11.8133 11.4801 11.6533C12.0001 11.48 12.4668 11.2 12.8801 10.8133C13.2134 10.5067 13.4934 10.16 13.7068 9.78668L13.3601 11.5867C13.3468 11.6667 13.3601 11.7467 13.4134 11.8133C13.4668 11.88 13.5334 11.9067 13.6134 11.9067H15.5601C15.6934 11.9067 15.8001 11.8133 15.8268 11.6933L16.7868 6.76001H18.1201C18.6934 6.76001 18.8534 6.86668 18.9068 6.92001C18.9468 6.96001 19.0268 7.12001 18.9334 7.61335L18.1601 11.6C18.1468 11.68 18.1601 11.76 18.2134 11.8267C18.2668 11.8933 18.3334 11.92 18.4134 11.92H20.4134C20.5334 11.88 20.6401 11.7867 20.6668 11.6667ZM11.6534 8.20001C11.5334 8.82668 11.3068 9.28001 10.9734 9.53335C10.6401 9.78668 10.0934 9.92001 9.37343 9.92001H8.50676L9.13343 6.69335H10.2534C11.0801 6.69335 11.4134 6.86668 11.5468 7.01335C11.7201 7.22668 11.7601 7.64001 11.6534 8.20001ZM28.9868 5.72001C28.4134 5.06668 27.5201 4.73335 26.3068 4.73335H22.5334C22.4001 4.73335 22.2934 4.82668 22.2668 4.94668L20.5201 13.9467C20.5068 14.0267 20.5201 14.1067 20.5734 14.1733C20.6268 14.24 20.6934 14.2667 20.7734 14.2667H22.7334C22.8668 14.2667 22.9734 14.1733 23.0001 14.0533L23.4268 11.88H24.8801C25.6401 11.88 26.2934 11.8 26.7868 11.64C27.3068 11.4667 27.7734 11.1867 28.1868 10.8C28.5334 10.48 28.8268 10.12 29.0401 9.73335C29.2534 9.34668 29.4134 8.92001 29.5068 8.45335C29.7334 7.29335 29.5601 6.38668 28.9868 5.72001ZM26.9468 8.20001C26.8268 8.82668 26.6001 9.28001 26.2668 9.53335C25.9334 9.78668 25.3868 9.92001 24.6668 9.92001H23.8001L24.4268 6.69335H25.5468C26.3734 6.69335 26.7068 6.86668 26.8401 7.01335C27.0268 7.22668 27.0668 7.64001 26.9468 8.20001Z" fill="white"/>
<path d="M10.2534 6.42668C11.0001 6.42668 11.4934 6.56001 11.7468 6.84001C12.0001 7.12001 12.0534 7.58668 11.9201 8.25334C11.7868 8.94668 11.5201 9.45334 11.1334 9.74668C10.7468 10.04 10.1601 10.1867 9.37344 10.1867H8.18677L8.9201 6.42668H10.2534ZM5.4801 14H7.4401L7.90677 11.6133H9.58677C10.3334 11.6133 10.9334 11.5333 11.4134 11.3733C11.8934 11.2133 12.3201 10.96 12.7201 10.5867C13.0534 10.28 13.3201 9.94668 13.5201 9.58668C13.7201 9.22668 13.8668 8.82668 13.9468 8.38668C14.1601 7.32001 14.0001 6.49334 13.4801 5.89334C12.9601 5.29334 12.1334 5.00001 11.0001 5.00001H7.22677L5.4801 14ZM15.3868 2.61334H17.3334L16.8668 5.00001H18.6001C19.6934 5.00001 20.4401 5.18668 20.8534 5.57334C21.2668 5.96001 21.3868 6.57334 21.2268 7.42668L20.4134 11.6133H18.4401L19.2134 7.62668C19.3068 7.17334 19.2668 6.86668 19.1201 6.70668C18.9734 6.54668 18.6401 6.45334 18.1468 6.45334H16.5868L15.5868 11.6133H13.6401L15.3868 2.61334ZM25.5468 6.42668C26.2934 6.42668 26.7868 6.56001 27.0401 6.84001C27.2934 7.12001 27.3468 7.58668 27.2134 8.25334C27.0801 8.94668 26.8134 9.45334 26.4268 9.74668C26.0401 10.04 25.4534 10.1867 24.6668 10.1867H23.4801L24.2134 6.42668H25.5468ZM20.7734 14H22.7334L23.2001 11.6133H24.8801C25.6268 11.6133 26.2268 11.5333 26.7068 11.3733C27.1868 11.2133 27.6134 10.96 28.0134 10.5867C28.3468 10.28 28.6134 9.94668 28.8134 9.58668C29.0134 9.22668 29.1601 8.82668 29.2401 8.38668C29.4534 7.32001 29.2934 6.49334 28.7734 5.89334C28.2534 5.29334 27.4268 5.00001 26.2934 5.00001H22.5201L20.7734 14Z" fill="#000004"/>
</g>
<defs>
<radialGradient id="paint0_radial_302_82" cx="0" cy="0" r="1" gradientUnits="userSpaceOnUse" gradientTransform="translate(10.527 3.15567) scale(22.4127 22.4127)">
<stop stop-color="white"/>
<stop offset="0.5" stop-color="#4C6B97"/>
<stop offset="1" stop-color="#231F20"/>
</radialGradient>
<clipPath id="clip0_302_82">
<rect width="34.1333" height="18" fill="white" transform="translate(0.28009)"/>
</clipPath>
</defs>
</svg>
