<svg width="15" height="18" viewBox="0 0 15 18" fill="none" xmlns="http://www.w3.org/2000/svg">
<g clip-path="url(#clip0_302_162)">
<path d="M6.77613 8.82912C7.97745 7.68455 7.61085 6.26897 6.52286 4.55355C5.43482 2.83817 3.24464 2.2279 2.83604 2.61718C2.42744 3.00646 2.33693 5.78974 3.42493 7.50516C4.51297 9.22054 5.57476 9.97372 6.77613 8.82912Z" fill="url(#paint0_linear_302_162)"/>
<path d="M7.8149 8.98753C8.70363 10.3888 9.89179 9.87643 11.3625 8.47522C12.8332 7.07398 13.443 4.38987 13.1407 3.9133C12.8385 3.43674 10.5413 3.46059 9.07065 4.86184C7.59995 6.26304 6.92615 7.58633 7.8149 8.98753Z" fill="url(#paint1_linear_302_162)"/>
<path d="M7.32892 8.21669C8.80466 8.39788 9.385 7.03454 9.65559 4.83079C9.92618 2.62697 8.81073 0.29774 8.30881 0.236112C7.8069 0.174484 6.12065 2.15971 5.85006 4.36353C5.57947 6.56728 5.85318 8.03549 7.32892 8.21669Z" fill="url(#paint2_linear_302_162)"/>
<path d="M6.9573 17.9623C10.0513 17.9623 12.5606 17.0635 12.5606 12.9875C12.5606 8.91135 10.0513 5.56656 6.9573 5.56656C3.86321 5.56656 1.35599 8.91135 1.35599 12.9875C1.35599 17.0635 3.86321 17.9623 6.9573 17.9623Z" fill="url(#paint3_linear_302_162)"/>
<path d="M9.78732 12.1553C10.2293 12.1553 10.5876 11.9886 10.5876 11.783C10.5876 11.5775 10.2293 11.4108 9.78732 11.4108C9.34531 11.4108 8.987 11.5775 8.987 11.783C8.987 11.9886 9.34531 12.1553 9.78732 12.1553Z" fill="#EAADCC"/>
<path d="M3.86047 11.9292C4.29918 11.983 4.67514 11.8613 4.70019 11.6572C4.72524 11.4532 4.38991 11.2441 3.9512 11.1902C3.51249 11.1364 3.13653 11.2581 3.11148 11.4622C3.08643 11.6662 3.42176 11.8753 3.86047 11.9292Z" fill="#EAADCC"/>
<path d="M6.02631 11.4354C6.01826 11.4229 6.0078 11.4122 5.99554 11.4037C5.98328 11.3953 5.96946 11.3895 5.9549 11.3865C5.94033 11.3835 5.92532 11.3834 5.91073 11.3863C5.89614 11.3891 5.88227 11.3949 5.86994 11.4032C5.85761 11.4115 5.84706 11.4222 5.83891 11.4347C5.83076 11.4471 5.82518 11.461 5.82249 11.4757C5.81981 11.4903 5.82007 11.5053 5.82326 11.5198C5.82645 11.5344 5.83251 11.5481 5.84109 11.5602C6.01244 11.8145 6.27597 11.9621 6.6227 12.0018C6.96791 12.0412 7.27614 11.9527 7.54048 11.7379C7.55228 11.7288 7.56214 11.7174 7.56947 11.7045C7.5768 11.6915 7.58147 11.6772 7.58318 11.6624C7.5849 11.6476 7.58364 11.6326 7.57947 11.6182C7.5753 11.6039 7.56831 11.5906 7.55891 11.579C7.54951 11.5675 7.53789 11.5579 7.52474 11.5509C7.51159 11.5439 7.49716 11.5396 7.48232 11.5382C7.46748 11.5369 7.45251 11.5385 7.43831 11.5431C7.42411 11.5476 7.41096 11.5549 7.39964 11.5646C7.18217 11.7413 6.93397 11.8125 6.64809 11.7798C6.36368 11.7473 6.15943 11.633 6.02631 11.4354ZM4.37052 9.71402C4.47558 9.71022 4.58035 9.72722 4.67882 9.76403C4.77728 9.80085 4.8675 9.85676 4.94429 9.92855C5.02128 10.0001 5.08336 10.0862 5.12696 10.1819C5.17056 10.2776 5.19483 10.3809 5.19836 10.486C5.20216 10.591 5.18516 10.6958 5.14835 10.7942C5.11153 10.8927 5.05562 10.9829 4.98383 11.0597C4.91224 11.1367 4.82614 11.1987 4.73048 11.2423C4.63482 11.2859 4.53149 11.3102 4.42643 11.3137C4.32137 11.3175 4.2166 11.3006 4.11813 11.2637C4.01966 11.2269 3.92944 11.171 3.85266 11.0992C3.77569 11.0276 3.71364 10.9415 3.67006 10.8458C3.62648 10.7502 3.60222 10.6469 3.5987 10.5418C3.59489 10.4368 3.61188 10.332 3.64868 10.2335C3.68549 10.1351 3.74139 10.0449 3.81318 9.96809C3.88476 9.89111 3.97085 9.82903 4.06649 9.78543C4.16214 9.74183 4.26547 9.71756 4.37052 9.71402Z" fill="black"/>
<path d="M4.4125 10.383C4.41146 10.3487 4.40365 10.3149 4.38952 10.2836C4.37539 10.2524 4.35522 10.2242 4.33017 10.2007C4.30512 10.1772 4.27568 10.159 4.24354 10.1469C4.2114 10.1349 4.17719 10.1293 4.14289 10.1305C4.10859 10.1317 4.07486 10.1396 4.04364 10.1539C4.01242 10.1682 3.98434 10.1885 3.96099 10.2137C3.93764 10.2388 3.9195 10.2684 3.9076 10.3006C3.8957 10.3327 3.89027 10.367 3.89164 10.4013C3.89406 10.4704 3.92383 10.5356 3.97439 10.5828C4.02494 10.6299 4.09216 10.655 4.16123 10.6526C4.23031 10.6502 4.2956 10.6204 4.34273 10.5699C4.38986 10.5193 4.41498 10.4521 4.41255 10.383H4.4125Z" fill="white"/>
<path d="M9.21974 9.91718C9.3248 9.91336 9.42958 9.93034 9.52806 9.96715C9.62654 10.004 9.71677 10.0599 9.79357 10.1317C9.87053 10.2033 9.93259 10.2894 9.97617 10.385C10.0198 10.4807 10.044 10.584 10.0475 10.6891C10.0513 10.7941 10.0343 10.8989 9.99754 10.9974C9.96073 11.0958 9.90483 11.186 9.83305 11.2628C9.76146 11.3398 9.67536 11.4019 9.5797 11.4455C9.48404 11.4891 9.38071 11.5133 9.27565 11.5168C9.1706 11.5206 9.06584 11.5036 8.96738 11.4668C8.86892 11.43 8.77871 11.3741 8.70193 11.3023C8.62495 11.2307 8.56287 11.1446 8.51927 11.049C8.47567 10.9533 8.4514 10.85 8.44786 10.7449C8.44406 10.6399 8.46106 10.5351 8.49787 10.4366C8.53469 10.3382 8.5906 10.248 8.6624 10.1712C8.73399 10.0942 8.82009 10.0322 8.91575 9.98856C9.0114 9.94497 9.11468 9.92071 9.21974 9.91718Z" fill="black"/>
<path d="M4.36464 9.54662C4.89888 9.52797 5.34708 9.94588 5.36573 10.4801C5.38439 11.0143 4.96647 11.4625 4.43223 11.4811C3.898 11.4998 3.4499 11.0818 3.43125 10.5476C3.4126 10.0134 3.83046 9.56527 4.36464 9.54662ZM5.03091 10.4918C5.01873 10.1425 4.72567 9.86921 4.37633 9.88144C4.0271 9.89362 3.75384 10.1866 3.76607 10.5359C3.77825 10.8853 4.07126 11.1585 4.42054 11.1463C4.76983 11.1341 5.04309 10.8411 5.03091 10.4918ZM9.21393 9.74973C9.74816 9.73108 10.1963 10.149 10.215 10.6832C10.2336 11.2174 9.8157 11.6656 9.28152 11.6842C8.74729 11.7029 8.29914 11.285 8.28048 10.7508C8.26183 10.2165 8.67975 9.76839 9.21393 9.74973ZM9.88014 10.6949C9.86796 10.3456 9.57496 10.0724 9.22562 10.0846C8.87633 10.0967 8.60307 10.3898 8.6153 10.7391C8.62749 11.0884 8.92049 11.3616 9.26978 11.3494C9.61912 11.3372 9.89233 11.0442 9.88014 10.6949Z" fill="white"/>
<path d="M9.26178 10.5862C9.26077 10.5518 9.25298 10.518 9.23886 10.4867C9.22475 10.4554 9.20459 10.4272 9.17953 10.4037C9.15448 10.3802 9.12503 10.3619 9.09288 10.3499C9.06073 10.3378 9.02651 10.3322 8.99219 10.3334C8.95787 10.3346 8.92413 10.3426 8.8929 10.3569C8.86167 10.3712 8.83357 10.3915 8.81022 10.4167C8.78687 10.4418 8.76873 10.4714 8.75683 10.5036C8.74494 10.5358 8.73953 10.5701 8.74092 10.6044C8.7437 10.6732 8.77361 10.7381 8.82411 10.7849C8.87461 10.8318 8.94158 10.8567 9.01041 10.8543C9.07923 10.8519 9.14431 10.8223 9.19141 10.7721C9.23851 10.7218 9.26381 10.655 9.26178 10.5862Z" fill="white"/>
<path d="M2.86227 13.2232L4.07659 14.4867L4.94788 13.5599C4.98527 13.5211 5.0364 13.4987 5.09021 13.4974C5.14403 13.4961 5.19619 13.516 5.23541 13.5529C5.27463 13.5898 5.29776 13.6406 5.29978 13.6944C5.3018 13.7482 5.28255 13.8006 5.24621 13.8403L4.36073 14.7824L5.61692 16.0895C5.63556 16.1089 5.65019 16.1317 5.65998 16.1568C5.66977 16.1818 5.67454 16.2086 5.674 16.2354C5.67347 16.2623 5.66764 16.2888 5.65686 16.3135C5.64608 16.3381 5.63055 16.3604 5.61116 16.379C5.59177 16.3976 5.5689 16.4123 5.54386 16.4221C5.51882 16.4319 5.49209 16.4366 5.4652 16.4361C5.43832 16.4356 5.4118 16.4297 5.38717 16.4189C5.36254 16.4082 5.34027 16.3926 5.32164 16.3732L4.07991 15.0811L3.49668 15.7016C3.47826 15.7212 3.45616 15.737 3.43165 15.748C3.40714 15.759 3.38069 15.7652 3.35382 15.766C3.32694 15.7668 3.30017 15.7623 3.27502 15.7528C3.24988 15.7433 3.22685 15.7289 3.20726 15.7105C3.18767 15.6921 3.1719 15.67 3.16085 15.6455C3.14981 15.621 3.14369 15.5945 3.14286 15.5677C3.14204 15.5408 3.14651 15.514 3.15603 15.4889C3.16555 15.4637 3.17993 15.4407 3.19834 15.4211L3.79577 14.7855L2.56704 13.507C2.54841 13.4876 2.53378 13.4647 2.52398 13.4397C2.51419 13.4146 2.50942 13.3879 2.50996 13.361C2.51049 13.3341 2.51632 13.3076 2.5271 13.283C2.53789 13.2583 2.55341 13.2361 2.5728 13.2174C2.59219 13.1988 2.61506 13.1842 2.6401 13.1744C2.66515 13.1646 2.69187 13.1598 2.71876 13.1603C2.74564 13.1609 2.77216 13.1667 2.79679 13.1775C2.82143 13.1883 2.84364 13.2038 2.86227 13.2232ZM11.017 13.2232C11.0547 13.184 11.1063 13.1614 11.1606 13.1604C11.1875 13.1598 11.2142 13.1646 11.2392 13.1744C11.2643 13.1842 11.2871 13.1988 11.3065 13.2175C11.3259 13.2361 11.3414 13.2584 11.3522 13.283C11.363 13.3076 11.3688 13.3341 11.3694 13.361C11.3699 13.3879 11.3651 13.4146 11.3553 13.4397C11.3455 13.4647 11.3309 13.4876 11.3123 13.507L10.0835 14.7855L10.681 15.4211C10.7171 15.4595 10.737 15.5103 10.7366 15.563C10.7361 15.6156 10.7154 15.6661 10.6787 15.7039L10.672 15.7105C10.6525 15.7289 10.6294 15.7433 10.6043 15.7528C10.5791 15.7623 10.5524 15.7668 10.5255 15.766C10.4986 15.7651 10.4722 15.759 10.4476 15.748C10.4231 15.7369 10.401 15.7211 10.3826 15.7015L9.7994 15.0811L8.55767 16.3732C8.52116 16.4112 8.47142 16.4337 8.41878 16.4359C8.36614 16.4382 8.31466 16.4201 8.27505 16.3853L8.26815 16.379C8.24876 16.3604 8.23323 16.3381 8.22245 16.3135C8.21167 16.2888 8.20585 16.2623 8.20532 16.2354C8.20479 16.2085 8.20956 16.1818 8.21936 16.1568C8.22916 16.1317 8.2438 16.1089 8.26244 16.0895L9.51863 14.7824L8.63309 13.8403C8.59703 13.8019 8.57715 13.7511 8.57757 13.6985C8.578 13.6458 8.5987 13.5953 8.63538 13.5575L8.64207 13.5509C8.68163 13.5138 8.73433 13.4938 8.78859 13.4955C8.84286 13.4972 8.89423 13.5203 8.93143 13.5599L9.80266 14.4867L11.017 13.2232Z" fill="#ECB732"/>
<path d="M8.2198 6.89222C8.25818 6.93061 8.27973 6.98267 8.27973 7.03695C8.27973 7.09123 8.25818 7.14329 8.2198 7.18169L7.26651 8.13503L7.84751 8.71615C7.88477 8.75339 7.90624 8.80356 7.90746 8.85623C7.90867 8.90889 7.88954 8.96 7.85404 8.99893L7.84751 9.00572C7.80912 9.04411 7.75705 9.06568 7.70275 9.06568C7.64846 9.06568 7.59639 9.04411 7.55799 9.00572L6.97688 8.42461L6.39577 9.00572C6.37677 9.02481 6.35419 9.03995 6.32933 9.0503C6.30447 9.06064 6.27782 9.06598 6.25089 9.06601C6.22396 9.06604 6.19729 9.06076 6.17241 9.05046C6.14753 9.04017 6.12492 9.02507 6.10588 9.00603C6.08685 8.98699 6.07175 8.96438 6.06146 8.93949C6.05118 8.91461 6.0459 8.88794 6.04593 8.86101C6.04596 8.83409 6.05131 8.80743 6.06166 8.78257C6.07201 8.75771 6.08716 8.73514 6.10625 8.71615L6.6873 8.13503L5.73401 7.18174C5.69675 7.1445 5.67528 7.09433 5.67407 7.04166C5.67285 6.98899 5.69198 6.93788 5.72748 6.89896L5.73401 6.89216C5.7724 6.85378 5.82448 6.83221 5.87877 6.83221C5.93307 6.83221 5.98514 6.85378 6.02353 6.89216L6.97688 7.84546L7.93023 6.89216C7.94924 6.87315 7.97181 6.85806 7.99665 6.84777C8.0215 6.83748 8.04813 6.83218 8.07502 6.83218C8.10191 6.83218 8.12853 6.83748 8.15338 6.84777C8.17822 6.85806 8.20079 6.8732 8.2198 6.89222Z" fill="#FFC73B"/>
</g>
<defs>
<linearGradient id="paint0_linear_302_162" x1="189.482" y1="-143.208" x2="251.204" y2="156.322" gradientUnits="userSpaceOnUse">
<stop stop-color="#52CE63"/>
<stop offset="1" stop-color="#51A256"/>
</linearGradient>
<linearGradient id="paint1_linear_302_162" x1="159.577" y1="191.341" x2="-139.989" y2="252.989" gradientUnits="userSpaceOnUse">
<stop stop-color="#52CE63"/>
<stop offset="1" stop-color="#51A256"/>
</linearGradient>
<linearGradient id="paint2_linear_302_162" x1="196.662" y1="23.363" x2="139.034" y2="492.709" gradientUnits="userSpaceOnUse">
<stop stop-color="#8AE99C"/>
<stop offset="1" stop-color="#52CE63"/>
</linearGradient>
<linearGradient id="paint3_linear_302_162" x1="577.026" y1="222.157" x2="484.01" y2="1243.6" gradientUnits="userSpaceOnUse">
<stop stop-color="#FFE56C"/>
<stop offset="1" stop-color="#FFC63A"/>
</linearGradient>
<clipPath id="clip0_302_162">
<rect width="13.9215" height="18" fill="white" transform="translate(0.79129)"/>
</clipPath>
</defs>
</svg>
