<svg width="19" height="18" viewBox="0 0 19 18" fill="none" xmlns="http://www.w3.org/2000/svg">
<g clip-path="url(#clip0_302_132)">
<path d="M18.0961 10.7786C17.9914 10.4616 17.7173 10.2408 17.3627 10.1879C17.1956 10.1629 17.0041 10.1735 16.7775 10.2202C16.3826 10.3017 16.0896 10.3327 15.8758 10.3387C16.6829 8.97613 17.3391 7.42226 17.7169 5.95956C18.3279 3.5944 18.0014 2.51692 17.6199 2.02956C16.6104 0.739559 15.1374 0.0465592 13.3605 0.0253547C12.4125 0.0137638 11.5804 0.200923 11.1463 0.335514C10.7421 0.264196 10.3075 0.224377 9.85149 0.217014C8.99669 0.203377 8.24145 0.389718 7.5961 0.772696C7.23883 0.651877 6.66542 0.481559 6.00324 0.372877C4.44583 0.117196 3.1906 0.316423 2.27247 0.965036C1.16069 1.75035 0.645308 3.11481 0.740626 5.02049C0.770899 5.62554 1.10935 7.46644 1.64226 9.21231C1.94854 10.2158 2.27513 11.0491 2.61297 11.6894C3.09208 12.5972 3.60474 13.1318 4.18026 13.3238C4.50283 13.4313 5.08892 13.5065 5.70535 12.9931C5.78349 13.0878 5.88774 13.1818 6.02608 13.2691C6.20179 13.3799 6.41663 13.4705 6.6312 13.5241C7.40445 13.7174 8.12874 13.6691 8.74667 13.3981C8.75049 13.508 8.75342 13.613 8.75588 13.7037C8.75997 13.8508 8.76406 13.995 8.76945 14.1299C8.80606 15.0417 8.8681 15.7507 9.05192 16.2468C9.06201 16.2741 9.07558 16.3157 9.0899 16.3598C9.1816 16.6406 9.33494 17.1106 9.72508 17.4787C10.1291 17.8601 10.6177 17.977 11.0653 17.977C11.2897 17.977 11.5039 17.9476 11.6917 17.9073C12.3613 17.7638 13.1217 17.5452 13.6718 16.7619C14.1919 16.0215 14.4447 14.9062 14.4904 13.149C14.4964 13.0993 14.5018 13.0518 14.5071 13.0066L14.518 12.9138L14.6405 12.9245L14.6721 12.9266C15.354 12.9577 16.1879 12.8131 16.7 12.5752C17.1047 12.3875 18.4014 11.7029 18.0961 10.7786Z" fill="black"/>
<path d="M16.9301 10.9583C14.9023 11.3766 14.7629 10.6901 14.7629 10.6901C16.9038 7.51329 17.7988 3.48081 17.0265 2.49388C14.9194 -0.198282 11.2721 1.07495 11.2112 1.10795L11.1916 1.11149C10.791 1.02831 10.3427 0.978809 9.83874 0.970559C8.92129 0.955559 8.22529 1.2111 7.69715 1.6116C7.69715 1.6116 1.19056 -1.0689 1.49322 4.98279C1.55758 6.2702 3.33849 14.7241 5.46263 12.1706C6.23902 11.2369 6.98922 10.4474 6.98922 10.4474C7.36177 10.6949 7.80781 10.8212 8.2754 10.7759L8.31174 10.745C8.30042 10.8609 8.30561 10.9743 8.32627 11.1086C7.77904 11.72 7.93988 11.8273 6.84597 12.0525C5.73904 12.2806 6.38929 12.6867 6.81386 12.7929C7.32856 12.9216 8.51929 13.1039 9.32383 11.9776L9.29179 12.1061C9.50615 12.2779 9.6567 13.2232 9.63147 14.0801C9.60624 14.9371 9.5894 15.5254 9.75829 15.9849C9.92731 16.4445 10.0957 17.4785 11.5337 17.1704C12.7353 16.9128 13.358 16.2455 13.4447 15.1324C13.5061 14.3411 13.6453 14.4581 13.654 13.7506L13.7656 13.4156C13.8943 12.3429 13.7861 11.9969 14.5263 12.1578L14.7063 12.1736C15.2511 12.1984 15.9643 12.086 16.3828 11.8914C17.2841 11.4732 17.8186 10.7748 16.9299 10.9583H16.9301Z" fill="#336791"/>
<path d="M8.07802 5.55853C7.89529 5.53309 7.72981 5.55662 7.64609 5.62003C7.59904 5.65569 7.58445 5.697 7.58049 5.72544C7.56999 5.80078 7.62277 5.88409 7.65522 5.92705C7.74699 6.04869 7.88104 6.13228 8.01372 6.15069C8.03295 6.15341 8.05211 6.15464 8.07113 6.15464C8.29238 6.15464 8.49359 5.98234 8.51131 5.85519C8.53347 5.69591 8.30227 5.58969 8.07802 5.55853ZM14.1315 5.56357C14.114 5.43873 13.8919 5.40314 13.6811 5.43246C13.4705 5.46178 13.2664 5.55682 13.2834 5.68194C13.2971 5.77923 13.4728 5.94532 13.6807 5.94532C13.6983 5.94532 13.716 5.94416 13.7339 5.94164C13.8727 5.92241 13.9746 5.83425 14.023 5.78346C14.0966 5.706 14.1393 5.61969 14.1315 5.56357Z" fill="white"/>
<path d="M17.6048 10.9108C17.5275 10.677 17.2786 10.6018 16.8652 10.6871C15.6375 10.9405 15.1979 10.765 15.0536 10.6587C16.0078 9.20508 16.7927 7.44789 17.2162 5.80846C17.4168 5.03187 17.5276 4.31064 17.5367 3.72278C17.5467 3.07758 17.4368 2.60344 17.2102 2.3138C16.2964 1.14619 14.9552 0.519871 13.3318 0.50269C12.2158 0.490144 11.2728 0.775758 11.09 0.856076C10.7051 0.760349 10.2854 0.701576 9.82852 0.694076C8.9907 0.680508 8.26647 0.881099 7.66688 1.28998C7.40642 1.19303 6.73333 0.961962 5.91017 0.829349C4.48708 0.600258 3.35622 0.773849 2.54922 1.34555C1.58629 2.02778 1.14174 3.24728 1.22786 4.9701C1.25683 5.54971 1.58711 7.3328 2.10829 9.04042C2.79433 11.288 3.54011 12.5603 4.32474 12.8221C4.41658 12.8527 4.52247 12.8741 4.63927 12.8741C4.92549 12.8741 5.27642 12.7451 5.64154 12.3061C6.08687 11.7719 6.54754 11.2506 7.02297 10.743C7.33142 10.9085 7.67029 11.001 8.01686 11.0103C8.01754 11.0193 8.01842 11.0284 8.01924 11.0374C7.95959 11.1085 7.90117 11.1807 7.84402 11.2539C7.60388 11.5587 7.5539 11.6222 6.78092 11.7813C6.56104 11.8267 5.97706 11.9471 5.96847 12.3564C5.9592 12.8037 6.65881 12.9916 6.73852 13.0115C7.01629 13.081 7.2839 13.1153 7.53911 13.1153C8.15977 13.1153 8.70597 12.9113 9.14247 12.5166C9.12904 14.1111 9.19552 15.6823 9.38697 16.161C9.54379 16.5529 9.92683 17.5106 11.1368 17.5106C11.3143 17.5106 11.5097 17.4899 11.7247 17.4438C12.9875 17.1731 13.5359 16.615 13.748 15.3845C13.8615 14.7269 14.0563 13.1566 14.148 12.3143C14.3413 12.3746 14.5903 12.4023 14.8594 12.4022C15.4207 12.4022 16.0683 12.2829 16.4745 12.0944C16.9307 11.8825 17.7541 11.3626 17.6048 10.9108ZM14.5976 5.21896C14.5934 5.46762 14.5592 5.69337 14.5229 5.92901C14.4838 6.18244 14.4435 6.44446 14.4333 6.76253C14.4233 7.07207 14.4619 7.39389 14.4993 7.70514C14.5749 8.33378 14.6524 8.98096 14.3523 9.61955C14.3025 9.53123 14.2581 9.43995 14.2194 9.34621C14.1821 9.2558 14.1011 9.11057 13.9889 8.90957C13.5526 8.12712 12.5309 6.2948 13.0539 5.54712C13.2097 5.32458 13.6051 5.09576 14.5976 5.21896ZM13.3946 1.00621C14.8492 1.03833 15.9998 1.58248 16.8144 2.62348C17.4392 3.42196 16.7512 7.05517 14.7594 10.1896C14.7394 10.1641 14.7193 10.1387 14.699 10.1134L14.6738 10.0819C15.1885 9.23187 15.0879 8.39085 14.9983 7.64521C14.9614 7.33921 14.9267 7.05019 14.9355 6.77869C14.9447 6.49096 14.9827 6.24414 15.0195 6.00551C15.0647 5.71144 15.1108 5.40714 15.0981 5.04844C15.1076 5.0108 15.1114 4.96635 15.1064 4.91358C15.074 4.5696 14.6813 3.54012 13.8808 2.60835C13.443 2.09869 12.8044 1.52835 11.9326 1.14367C12.3076 1.06594 12.8204 0.993462 13.3946 1.00621ZM5.25515 11.9848C4.85288 12.4685 4.57511 12.3758 4.48374 12.3454C3.88852 12.1468 3.19783 10.8888 2.5889 8.89376C2.06199 7.16753 1.75408 5.43169 1.72967 4.94494C1.65277 3.40553 2.02592 2.33269 2.83886 1.75614C4.16186 0.817962 6.33699 1.37951 7.21102 1.6643C7.19847 1.67671 7.18538 1.6883 7.17297 1.70092C5.7387 3.14937 5.77272 5.6241 5.77627 5.77539C5.77613 5.83376 5.78104 5.91639 5.78772 6.03005C5.8124 6.4463 5.85836 7.22098 5.73563 8.09828C5.62163 8.91353 5.87295 9.71146 6.42502 10.2875C6.48167 10.3465 6.54122 10.4027 6.60345 10.4558C6.35772 10.719 5.82365 11.301 5.25515 11.9848ZM6.78781 9.93987C6.34286 9.47555 6.14077 8.82973 6.23329 8.16782C6.36283 7.2411 6.31504 6.43396 6.28933 6.00033C6.28572 5.93964 6.28252 5.88646 6.28067 5.84453C6.4902 5.65873 7.46117 5.13851 8.15363 5.29717C8.46958 5.36951 8.66213 5.58469 8.74217 5.95478C9.15645 7.87089 8.79699 8.66951 8.50817 9.3113C8.44865 9.44351 8.3924 9.56848 8.3444 9.69776L8.30717 9.79771C8.21295 10.0504 8.12527 10.2853 8.07092 10.5084C7.59788 10.5071 7.13772 10.305 6.78781 9.9398V9.93987ZM6.86042 12.524C6.72229 12.4895 6.59806 12.4295 6.52517 12.3798C6.58606 12.3512 6.6944 12.3122 6.88231 12.2735C7.79165 12.0863 7.93211 11.9542 8.23879 11.5648C8.30908 11.4755 8.38879 11.3743 8.49917 11.251L8.49931 11.2509C8.6637 11.0668 8.7389 11.098 8.87527 11.1546C8.98579 11.2003 9.09345 11.3388 9.13708 11.4913C9.15774 11.5633 9.18092 11.6999 9.10504 11.8063C8.4644 12.7033 7.53086 12.6918 6.86042 12.524ZM11.6194 16.9525C10.507 17.1909 10.1131 16.6233 9.85354 15.9744C9.68602 15.5555 9.60365 13.6664 9.66208 11.5803C9.66283 11.5525 9.65888 11.5257 9.65124 11.5005C9.64441 11.4507 9.63402 11.4014 9.62015 11.3531C9.53329 11.0495 9.32158 10.7956 9.06761 10.6903C8.9667 10.6486 8.78152 10.5718 8.55897 10.6288C8.60642 10.4332 8.68872 10.2124 8.77797 9.97328L8.8154 9.87271C8.85754 9.75933 8.91045 9.64185 8.96636 9.51748C9.26861 8.84603 9.68254 7.92632 9.23329 5.84862C9.06502 5.07039 8.50306 4.69035 7.6512 4.77864C7.14052 4.83148 6.67327 5.03753 6.44022 5.15569C6.39011 5.18105 6.34429 5.2056 6.30147 5.22946C6.36652 4.44537 6.61224 2.98001 7.53147 2.05287C8.11027 1.46923 8.88106 1.18096 9.8202 1.19651C11.6707 1.22678 12.8573 2.17642 13.527 2.9678C14.1041 3.64969 14.4165 4.33662 14.5412 4.70712C13.6034 4.61173 12.9656 4.79685 12.6422 5.25912C11.9388 6.26467 13.0271 8.2163 13.5501 9.15428C13.646 9.32617 13.7288 9.47473 13.7548 9.53787C13.9252 9.95064 14.1457 10.2262 14.3066 10.4274C14.356 10.489 14.4039 10.5488 14.4403 10.601C14.1562 10.6829 13.646 10.8721 13.6925 11.8179C13.655 12.2924 13.3884 14.5142 13.2529 15.2992C13.074 16.3362 12.6924 16.7225 11.6194 16.9526V16.9525ZM16.2629 11.6387C15.9724 11.7735 15.4864 11.8746 15.0247 11.8963C14.5147 11.9202 14.255 11.8392 14.1939 11.7894C14.1653 11.2 14.3846 11.1384 14.6168 11.0733C14.6533 11.063 14.6889 11.053 14.7232 11.041C14.7446 11.0584 14.7679 11.0756 14.7936 11.0926C15.2035 11.3631 15.9346 11.3923 16.9668 11.1792L16.9781 11.177C16.8389 11.3071 16.6007 11.4818 16.2629 11.6387Z" fill="white"/>
</g>
<defs>
<clipPath id="clip0_302_132">
<rect width="17.4545" height="18" fill="white" transform="translate(0.709198)"/>
</clipPath>
</defs>
</svg>
