<svg width="22" height="18" viewBox="0 0 22 18" fill="none" xmlns="http://www.w3.org/2000/svg">
<g clip-path="url(#clip0_302_150)">
<path d="M20.8886 13.8226C19.7708 14.4053 13.9803 16.7861 12.7476 17.4288C11.5148 18.0715 10.83 18.0653 9.85611 17.5998C8.88231 17.1342 2.72025 14.6451 1.61022 14.1146C1.0555 13.8495 0.763733 13.6256 0.763733 13.4142V11.2971C0.763733 11.2971 8.78601 9.55065 10.0811 9.08601C11.3761 8.62136 11.8255 8.60459 12.9276 9.00828C14.0298 9.41213 20.6199 10.6011 21.7092 11.0001L21.7087 13.0872C21.7089 13.2965 21.4575 13.5261 20.8886 13.8226Z" fill="#912626"/>
<path d="M20.8881 11.718C19.7704 12.3004 13.9801 14.6813 12.7474 15.3239C11.5147 15.9667 10.8299 15.9604 9.8561 15.4949C8.88222 15.0297 2.72041 12.5402 1.61047 12.0099C0.500521 11.4793 0.477284 11.1142 1.56759 10.6872C2.6579 10.2602 8.78592 7.85593 10.0812 7.39128C11.3762 6.9268 11.8255 6.90986 12.9276 7.31372C14.0297 7.71741 19.7855 10.0084 20.8746 10.4073C21.964 10.8066 22.0059 11.1354 20.8881 11.718Z" fill="#C6302B"/>
<path d="M20.8886 10.397C19.7708 10.9797 13.9803 13.3604 12.7476 14.0034C11.5148 14.6459 10.83 14.6397 9.85611 14.1741C8.88222 13.7088 2.72025 11.2195 1.61022 10.6889C1.0555 10.4238 0.763733 10.2003 0.763733 9.98878V7.87141C0.763733 7.87141 8.78601 6.12508 10.0811 5.66044C11.3761 5.19579 11.8255 5.17894 12.9276 5.58271C14.0299 5.98648 20.62 7.17522 21.7092 7.57425L21.7087 9.66168C21.7089 9.87088 21.4575 10.1005 20.8886 10.397Z" fill="#912626"/>
<path d="M20.8881 8.29235C19.7704 8.8749 13.9801 11.2556 12.7474 11.8985C11.5147 12.5411 10.8299 12.5348 9.8561 12.0692C8.88222 11.604 2.72041 9.11463 1.61047 8.58428C0.500521 8.05385 0.477284 7.68862 1.56759 7.26152C2.6579 6.83468 8.786 4.43029 10.0812 3.96572C11.3762 3.50116 11.8255 3.48431 12.9276 3.88808C14.0297 4.29177 19.7855 6.5826 20.8746 6.98163C21.964 7.3809 22.0059 7.70981 20.8881 8.29235Z" fill="#C6302B"/>
<path d="M20.8886 6.84435C19.7708 7.42689 13.9803 9.8078 12.7476 10.4507C11.5148 11.0933 10.83 11.087 9.85611 10.6215C8.88222 10.1562 2.72025 7.66679 1.61022 7.13644C1.0555 6.8711 0.763733 6.64749 0.763733 6.43624V4.31879C0.763733 4.31879 8.78601 2.57254 10.0811 2.10798C11.3761 1.64325 11.8255 1.62656 12.9276 2.03025C14.0299 2.43402 20.62 3.62276 21.7092 4.02179L21.7087 6.10913C21.7089 6.31818 21.4575 6.54776 20.8886 6.84435Z" fill="#912626"/>
<path d="M20.8881 4.73973C19.7704 5.32228 13.9802 7.70319 12.7474 8.34579C11.5147 8.98839 10.8299 8.98209 9.85611 8.51679C8.88231 8.05124 2.72042 5.56201 1.61055 5.03158C0.500526 4.50123 0.477371 4.13592 1.5676 3.70891C2.65791 3.28198 8.78601 0.877916 10.0812 0.413189C11.3762 -0.0514567 11.8255 -0.0681476 12.9276 0.335625C14.0297 0.739398 19.7855 3.03022 20.8746 3.42925C21.9641 3.8282 22.0059 4.15719 20.8881 4.73973Z" fill="#C6302B"/>
<path d="M13.796 2.68011L11.9952 2.86706L11.592 3.8371L10.9409 2.75465L8.86152 2.56777L10.4131 2.00822L9.94757 1.14929L11.4003 1.71744L12.7697 1.26907L12.3996 2.15721L13.796 2.68011ZM11.4845 7.38613L8.12368 5.99219L12.9395 5.25297L11.4845 7.38613ZM6.82498 3.21929C8.24657 3.21929 9.39898 3.66602 9.39898 4.21698C9.39898 4.76811 8.24657 5.21476 6.82498 5.21476C5.40339 5.21476 4.25098 4.76803 4.25098 4.21698C4.25098 3.66602 5.40339 3.21929 6.82498 3.21929Z" fill="white"/>
<path d="M15.9242 2.9453L18.7745 4.07161L15.9267 5.19686L15.9242 2.9453Z" fill="#621B1C"/>
<path d="M12.771 4.1926L15.9242 2.94528L15.9267 5.19684L15.6175 5.31776L12.771 4.1926Z" fill="#9A2928"/>
</g>
<defs>
<clipPath id="clip0_302_150">
<rect width="20.9455" height="18" fill="white" transform="translate(0.763733)"/>
</clipPath>
</defs>
</svg>
