<svg width="73" height="18" viewBox="0 0 73 18" fill="none" xmlns="http://www.w3.org/2000/svg">
<g clip-path="url(#clip0_302_211)">
<path d="M57.1458 5.39086V17.9758H52.6087V5.39086H57.1458ZM62.9967 5.36611L65.0692 8.3572L67.1977 5.36611H71.8749L67.3377 11.3483L72.2669 17.9512H67.2537L64.7612 14.5368L62.2685 17.9512H57.5913L62.4925 11.5457L57.9837 5.36625H62.9969L62.9967 5.36611ZM46.6715 4.96856C50.0819 4.96856 51.1043 7.31939 51.1244 9.91266L51.1247 9.99141V17.8923H46.5874V11.1534L46.5866 11.0521L46.5852 10.9527L46.5826 10.8553L46.5794 10.7599C46.5788 10.7443 46.5781 10.7286 46.5774 10.713L46.5728 10.6206C46.5711 10.5904 46.5692 10.5603 46.5672 10.5301L46.5607 10.4417C46.5595 10.4272 46.5583 10.4127 46.557 10.3982L46.5489 10.3127L46.5397 10.2293C46.4111 9.144 45.9912 8.58052 44.9071 8.58052C43.6215 8.58052 43.0645 9.47756 42.9262 10.9077L42.9172 11.0095C42.9004 11.2148 42.8919 11.4308 42.8907 11.6561L42.8905 17.8923H38.3534V11.2047L38.353 11.1025C38.353 11.0856 38.3527 11.0687 38.3525 11.052L38.3509 10.9527L38.3483 10.8553L38.3448 10.7599L38.3403 10.6665C38.3395 10.6512 38.3387 10.6359 38.3378 10.6206L38.3317 10.5301L38.3247 10.4417L38.3167 10.3552C38.1988 9.18759 37.7704 8.58052 36.6449 8.58052C35.1754 8.58052 34.6392 9.79734 34.6287 11.656L34.6285 17.8923H30.0914V5.30719H34.6285V7.19775C35.3007 5.81512 36.6451 4.96856 38.5214 4.96856C40.734 4.96856 41.8822 5.98444 42.4145 7.45172C43.0867 6.04083 44.571 4.96856 46.6714 4.96856H46.6715ZM22.7062 4.57102C26.8377 4.57102 29.0474 7.39195 29.0913 10.7613L29.0918 10.8637V12.1334H20.3257C20.4378 13.6853 21.5581 14.419 22.9303 14.419C24.1468 14.419 24.9265 14.0068 25.3505 13.0465L25.367 13.0082L29.0079 13.3467C28.3638 16.225 26.0671 17.8334 22.7623 17.8334C18.7573 17.8334 15.9006 15.4066 15.9006 11.3998C15.9006 7.42106 18.8134 4.57102 22.7063 4.57102H22.7062ZM8.75591 0C13.332 0 15.606 2.178 15.606 5.65706C15.606 8.25933 14.0057 9.95639 11.844 10.2393C13.6689 10.6071 14.7357 11.6536 14.9322 13.7184L14.9607 14.0981L14.9856 14.453L15.007 14.7852L15.0219 15.0355L15.0379 15.3308L15.0463 15.4995L15.058 15.7673L15.0676 16.0204L15.0724 16.1657L15.0787 16.3987L15.0843 16.665L15.0863 16.7939L15.0898 17.1668L15.0909 17.556L15.0911 17.7888H10.3718C10.3718 17.6906 10.3727 17.5961 10.3738 17.5033L10.3766 17.3197L10.3848 16.8747L10.3869 16.7257L10.3883 16.5714L10.3884 16.4918L10.3883 16.3423L10.3869 16.1855L10.3849 16.0623L10.3811 15.8901L10.3755 15.7072L10.3679 15.513L10.3583 15.306L10.3527 15.1975L10.343 15.0277L10.3319 14.8494L10.3147 14.5974L10.2998 14.3972C10.1693 12.5032 9.40756 11.9793 8.01439 11.9152L7.92355 11.9116L7.83102 11.9094C7.79961 11.9088 7.7682 11.9084 7.7368 11.9083L0.266937 11.9081V8.20266H7.91356C9.93491 8.20266 10.9454 7.58306 10.9454 5.94253C10.9454 4.5 9.93491 3.62573 7.91356 3.62573H0.266937V0H8.75591ZM5.25673 15.0265C5.87577 15.0265 6.13494 15.3703 6.22705 15.6994L6.23703 15.7373L6.24153 15.756L6.24927 15.7936L6.25587 15.8306L6.25869 15.8489L6.26333 15.885L6.26684 15.9204L6.26825 15.9377L6.27008 15.9719L6.27064 15.9885L6.27106 16.0208V17.7888H0.266937V15.0265H5.25673ZM22.6502 7.84434C21.5142 7.84434 20.8724 8.39362 20.5653 9.19786L20.5422 9.26016L20.5206 9.32344C20.4995 9.38728 20.4805 9.45253 20.4632 9.51891L20.4466 9.58598C20.4361 9.63098 20.4262 9.67627 20.4171 9.72239L20.4042 9.79158C20.402 9.80323 20.4 9.8149 20.3981 9.82659L20.3869 9.89691L20.3817 9.93248H24.7787C24.7226 8.80369 23.9945 7.8442 22.6502 7.8442V7.84434ZM57.1737 0.198703V4.20567H52.5808V0.198703H57.1739H57.1737Z" fill="#121212"/>
</g>
<defs>
<clipPath id="clip0_302_211">
<rect width="72" height="18" fill="white" transform="translate(0.266937)"/>
</clipPath>
</defs>
</svg>
