<svg width="16" height="18" viewBox="0 0 16 18" fill="none" xmlns="http://www.w3.org/2000/svg">
<g clip-path="url(#clip0_302_177)">
<path d="M1.26978 16.5512L0.713421 1.72517C0.694969 1.23544 1.07037 0.820426 1.55942 0.789956L14.1701 0.00179319C14.6679 -0.0293541 15.0966 0.348984 15.1278 0.846777C15.1289 0.865511 15.1295 0.884301 15.1295 0.903091V17.0587C15.1295 17.5575 14.7252 17.9618 14.2265 17.9618C14.2129 17.9618 14.1994 17.9615 14.1859 17.9609L2.13175 17.4195C1.66229 17.3984 1.28745 17.0208 1.26978 16.5512V16.5512Z" fill="#FF4785"/>
<mask id="mask0_302_177" style="mask-type:luminance" maskUnits="userSpaceOnUse" x="0" y="0" width="16" height="18">
<path d="M1.26978 16.5512L0.713421 1.72517C0.694969 1.23544 1.07037 0.820426 1.55942 0.789956L14.1701 0.00179319C14.6679 -0.0293541 15.0966 0.348984 15.1278 0.846777C15.1289 0.865511 15.1295 0.884301 15.1295 0.903091V17.0587C15.1295 17.5575 14.7252 17.9618 14.2265 17.9618C14.2129 17.9618 14.1994 17.9615 14.1859 17.9609L2.13175 17.4195C1.66229 17.3984 1.28745 17.0208 1.26978 16.5512V16.5512Z" fill="white"/>
</mask>
<g mask="url(#mask0_302_177)">
<path d="M11.3584 2.20779L11.4446 0.136044L13.1764 0L13.251 2.13647C13.2519 2.16216 13.2455 2.18758 13.2324 2.20972C13.2194 2.23187 13.2003 2.24982 13.1773 2.26145C13.1544 2.27308 13.1286 2.2779 13.1031 2.27535C13.0775 2.2728 13.0532 2.26299 13.033 2.24707L12.3652 1.72089L11.5745 2.3207C11.5541 2.33617 11.5298 2.34552 11.5043 2.34767C11.4788 2.34982 11.4533 2.34467 11.4306 2.33283C11.4079 2.32099 11.3891 2.30294 11.3763 2.2808C11.3636 2.25866 11.3573 2.23334 11.3584 2.20779ZM9.14363 6.77003C9.14363 7.1214 11.5103 6.95302 11.8279 6.70621C11.8279 4.31362 10.5441 3.05633 8.19324 3.05633C5.84241 3.05633 4.52525 4.33315 4.52525 6.24837C4.52525 9.58413 9.02694 9.648 9.02694 11.4675C9.02694 11.9782 8.7768 12.2815 8.22659 12.2815C7.50969 12.2815 7.22621 11.9153 7.25955 10.6704C7.25955 10.4003 4.52525 10.3161 4.44185 10.6704C4.22957 13.6873 6.10913 14.5574 8.25994 14.5574C10.344 14.5574 11.978 13.4466 11.978 11.4356C11.978 7.86041 7.40965 7.95617 7.40965 6.18455C7.40965 5.46636 7.94316 5.3706 8.25999 5.3706C8.59342 5.3706 9.19362 5.4294 9.14363 6.77003Z" fill="white"/>
</g>
</g>
<defs>
<clipPath id="clip0_302_177">
<rect width="14.4451" height="18" fill="white" transform="translate(0.712738)"/>
</clipPath>
</defs>
</svg>
