<svg width="19" height="18" viewBox="0 0 19 18" fill="none" xmlns="http://www.w3.org/2000/svg">
<g clip-path="url(#clip0_302_119)">
<path d="M14.545 0H4.98248C2.65253 0 0.763733 1.8888 0.763733 4.21875V13.7812C0.763733 16.1112 2.65253 18 4.98248 18H14.545C16.8749 18 18.7637 16.1112 18.7637 13.7812V4.21875C18.7637 1.8888 16.8749 0 14.545 0Z" fill="#FF3E00"/>
<mask id="mask0_302_119" style="mask-type:luminance" maskUnits="userSpaceOnUse" x="4" y="2" width="12" height="14">
<path d="M4.4903 2.67188H15.0121V15.3281H4.4903V2.67188Z" fill="white"/>
</mask>
<g mask="url(#mask0_302_119)">
<path d="M14.3364 4.34509C13.1674 2.6611 10.8399 2.16779 9.16671 3.22958L6.2171 5.11733C5.41273 5.62147 4.85501 6.44729 4.69413 7.38041C4.55463 8.16341 4.67262 8.96778 5.04802 9.665C4.79067 10.0511 4.61897 10.4801 4.54387 10.9306C4.37231 11.8852 4.59759 12.872 5.15531 13.6549C6.33516 15.3389 8.65181 15.8322 10.325 14.7704L13.2746 12.8934C14.079 12.3893 14.6367 11.5634 14.7976 10.6303C14.937 9.84732 14.8191 9.04288 14.4437 8.34573C14.7011 7.95957 14.8727 7.5306 14.9478 7.08011C15.1301 6.11478 14.9049 5.12802 14.3364 4.34509Z" fill="white"/>
<path d="M8.8771 13.8158C8.41354 13.936 7.92424 13.911 7.47536 13.7441C7.02648 13.5772 6.63969 13.2765 6.36729 12.8826C6.0241 12.4107 5.89535 11.8208 5.99182 11.2416C6.01334 11.1451 6.03478 11.0593 6.05623 10.9628L6.10988 10.7912L6.25999 10.8984C6.61126 11.1545 7.00276 11.3502 7.41839 11.4776L7.52562 11.5098L7.51493 11.617C7.50417 11.7672 7.54713 11.9281 7.63292 12.0568C7.80455 12.3035 8.10485 12.4215 8.3944 12.3464C8.45881 12.3249 8.52314 12.3035 8.57679 12.2713L11.5156 10.3943C11.6658 10.2978 11.7623 10.1584 11.7944 9.98675C11.8266 9.81511 11.7837 9.63279 11.6872 9.49336C11.5156 9.24664 11.2153 9.13941 10.9256 9.2145C10.8613 9.23595 10.797 9.25739 10.7433 9.2896L9.61713 10.0082C9.43481 10.1262 9.23105 10.212 9.01653 10.2656C8.55297 10.3858 8.06368 10.3608 7.61481 10.1939C7.16594 10.027 6.77915 9.72634 6.50672 9.33249C6.17421 8.86055 6.03478 8.27063 6.14208 7.69146C6.23855 7.13375 6.58181 6.6296 7.06444 6.3293L10.014 4.45231C10.1963 4.33432 10.4001 4.24854 10.6147 4.18414C11.0782 4.0639 11.5675 4.08893 12.0164 4.25582C12.4653 4.42272 12.8521 4.72345 13.1245 5.11732C13.4677 5.58926 13.5963 6.17911 13.4999 6.75835C13.4783 6.85489 13.4569 6.94067 13.4248 7.03721L13.3711 7.20877L13.2209 7.10154C12.8697 6.84546 12.4782 6.64973 12.0626 6.52238L11.9553 6.49018L11.9661 6.38295C11.9768 6.23276 11.9339 6.07189 11.8481 5.94314C11.6764 5.69649 11.3761 5.58919 11.0866 5.66428C11.0222 5.68573 10.9579 5.70718 10.9042 5.73938L7.96542 7.61637C7.81524 7.71291 7.7187 7.85234 7.68656 8.02397C7.65436 8.19553 7.69725 8.37793 7.79379 8.51736C7.96542 8.76401 8.26573 8.87124 8.55535 8.79621C8.61968 8.77477 8.68402 8.75325 8.73767 8.72112L9.86386 8.00253C10.0462 7.88454 10.2499 7.79869 10.4645 7.73435C10.928 7.61409 11.4173 7.63909 11.8662 7.80598C12.3151 7.97287 12.7019 8.27359 12.9743 8.66747C13.3175 9.13941 13.4462 9.72933 13.3497 10.3085C13.2531 10.8662 12.9099 11.3704 12.4272 11.6707L9.4777 13.5477C9.29538 13.6656 9.09162 13.7514 8.8771 13.8158Z" fill="#FF3E00"/>
</g>
</g>
<defs>
<clipPath id="clip0_302_119">
<rect width="18" height="18" fill="white" transform="translate(0.763733)"/>
</clipPath>
</defs>
</svg>
