<svg width="19" height="18" viewBox="0 0 19 18" fill="none" xmlns="http://www.w3.org/2000/svg">
<g clip-path="url(#clip0_302_160)">
<path d="M9.16432 3.60028C6.76427 3.60028 5.26479 4.79981 4.66432 7.19986C5.56404 6.00019 6.61437 5.55033 7.81404 5.85028C8.49902 6.021 8.98854 6.51769 9.53065 7.06809C10.4129 7.96345 11.4341 9 13.6643 9C16.0642 9 17.5639 7.80033 18.1643 5.39972C17.2645 6.60009 16.2143 7.04995 15.0145 6.75C14.3296 6.57914 13.8407 6.08259 13.2979 5.53219C12.4161 4.63683 11.3952 3.60028 9.16432 3.60028ZM4.66432 9C2.26441 9 0.764789 10.1997 0.16432 12.6003C1.06404 11.3999 2.11423 10.95 3.31404 11.25C3.99902 11.4209 4.48854 11.9174 5.03065 12.4678C5.91293 13.3632 6.93415 14.3997 9.16432 14.3997C11.5642 14.3997 13.0639 13.2002 13.6643 10.8001C12.7645 11.9998 11.7143 12.4497 10.5145 12.1497C9.82962 11.979 9.34066 11.4823 8.79785 10.9319C7.91613 10.0365 6.89519 9 4.66432 9Z" fill="#38BDF8"/>
</g>
<defs>
<clipPath id="clip0_302_160">
<rect width="18" height="18" fill="white" transform="translate(0.163757)"/>
</clipPath>
</defs>
</svg>
