<svg width="19" height="18" viewBox="0 0 19 18" fill="none" xmlns="http://www.w3.org/2000/svg">
<g clip-path="url(#clip0_302_18)">
<path d="M3.95171 6.60938H17.9678V16.9692H3.95171V6.60938Z" fill="white"/>
<path d="M0.763733 8.92969V17.8594H18.7637V0H0.763733V8.92969ZM15.2689 8.21531C15.7 8.31458 16.0918 8.5383 16.3949 8.85825C16.5618 9.03062 16.7069 9.22254 16.8269 9.42975C16.8269 9.45261 16.0493 9.9741 15.5756 10.2656C15.5583 10.277 15.4892 10.2027 15.4129 10.0898C15.3264 9.94177 15.2035 9.81785 15.0557 9.72966C14.9079 9.64146 14.7399 9.59186 14.5676 9.58548C14.0218 9.54834 13.6705 9.83266 13.6733 10.2999C13.6688 10.4162 13.6957 10.5316 13.7511 10.6342C13.8706 10.8814 14.0938 11.0285 14.7937 11.3286C16.0825 11.8786 16.634 12.2415 16.9767 12.7573C17.3597 13.3288 17.4447 14.2518 17.1855 14.9347C16.8975 15.6777 16.1919 16.182 15.194 16.3492C14.7382 16.401 14.2777 16.3962 13.8231 16.3349C13.1264 16.221 12.4846 15.8891 11.9914 15.3876C11.8258 15.2062 11.5033 14.7333 11.5234 14.699C11.576 14.6603 11.6313 14.6254 11.689 14.5947L12.3557 14.2289L12.8727 13.9317L12.9807 14.0903C13.163 14.349 13.3949 14.5695 13.6633 14.739C14.2393 15.039 15.0255 14.9976 15.4143 14.6504C15.5448 14.5232 15.6263 14.3546 15.6444 14.1739C15.6626 13.9933 15.6163 13.812 15.5137 13.6617C15.3697 13.4631 15.0817 13.2959 14.2767 12.9473C13.3479 12.5501 12.9476 12.3044 12.5818 11.9129C12.3535 11.6546 12.1849 11.3498 12.0879 11.0199C12.0155 10.6431 12.0048 10.2572 12.0562 9.87695C12.2477 8.98684 12.9202 8.36533 13.9023 8.18102C14.3571 8.12519 14.8178 8.13771 15.2689 8.21817V8.21531ZM11.0439 8.96398V9.6955H8.70677V16.3006H7.04933V9.69407H4.70645V8.97969C4.69915 8.73334 4.70492 8.48678 4.72373 8.24103C4.73525 8.22817 6.16373 8.22817 7.89173 8.22817H11.0353L11.0439 8.96398Z" fill="#007ACC"/>
</g>
<defs>
<clipPath id="clip0_302_18">
<rect width="18" height="18" fill="white" transform="translate(0.763733)"/>
</clipPath>
</defs>
</svg>
